<?xml version="1.0" standalone="no"?>
<!DOCTYPE svg PUBLIC "-//W3C//DTD SVG 20010904//EN"
 "http://www.w3.org/TR/2001/REC-SVG-20010904/DTD/svg10.dtd">
<svg version="1.0" xmlns="http://www.w3.org/2000/svg"
 width="1417.000000pt" height="1417.000000pt" viewBox="0 0 1417.000000 1417.000000"
 preserveAspectRatio="xMidYMid meet">
<metadata>
Created by potrace 1.14, written by Peter Selinger 2001-2017
</metadata>
<g transform="translate(0.000000,1417.000000) scale(0.100000,-0.100000)"
fill="#000000" stroke="none">
<path d="M9315 13992 c2 -3 -2 -11 -10 -18 -8 -8 -12 -21 -9 -28 3 -8 1 -17
-4 -20 -5 -3 -9 2 -8 11 1 11 -8 16 -31 18 -18 1 -30 -2 -27 -7 10 -15 -9 -8
-23 10 -8 9 -12 11 -8 5 3 -7 2 -13 -4 -13 -5 0 -17 -7 -25 -16 -12 -12 -16
-12 -16 -2 0 10 -3 9 -11 -2 -8 -11 -9 -9 -3 10 6 22 5 23 -9 11 -9 -7 -14
-18 -10 -24 3 -6 1 -7 -5 -3 -6 4 -8 14 -5 23 5 13 3 13 -20 -2 -24 -16 -27
-16 -33 -1 -3 9 -10 16 -16 16 -5 0 -6 -5 -2 -12 5 -8 2 -9 -10 -5 -14 6 -17
3 -12 -10 4 -10 4 -14 0 -10 -4 4 -16 -1 -27 -10 -11 -10 -18 -13 -14 -8 3 6
2 17 -2 24 -7 11 -13 11 -27 1 -18 -11 -18 -11 1 -5 17 5 18 4 7 -7 -11 -11
-16 -10 -28 6 -12 17 -14 17 -14 4 0 -9 -5 -20 -12 -24 -7 -4 -8 -3 -4 4 4 7
2 12 -4 12 -6 0 -8 6 -4 13 5 9 4 9 -6 0 -11 -10 -17 -10 -29 0 -12 9 -13 9
-7 0 5 -9 -1 -13 -19 -13 -14 0 -24 -4 -20 -9 3 -5 1 -13 -5 -16 -6 -4 -10 -3
-9 2 3 20 -2 34 -11 28 -5 -3 -8 -11 -6 -18 1 -7 1 -9 -1 -4 -3 4 -10 4 -15 1
-6 -4 -8 -2 -4 4 3 6 2 14 -4 17 -6 4 -9 1 -8 -5 5 -18 -38 -44 -48 -29 -5 8
-3 9 6 4 9 -5 11 -4 6 3 -5 8 -2 10 8 6 9 -3 16 -2 16 4 0 11 -18 11 -38 -2
-7 -4 -16 -5 -19 -2 -9 8 -34 -15 -27 -25 7 -12 -29 2 -38 15 -5 8 -8 7 -8 -1
0 -8 -13 -11 -39 -9 -30 2 -38 0 -34 -11 4 -11 8 -11 20 -2 11 10 18 8 36 -11
l22 -24 -23 19 c-17 14 -25 16 -34 7 -9 -9 -16 -8 -31 6 -19 17 -20 16 -7 -8
12 -23 12 -24 -4 -11 -24 20 -60 23 -44 4 9 -11 7 -12 -8 -6 -10 3 -22 11 -26
17 -5 7 -8 6 -8 -3 0 -7 -6 -11 -14 -8 -10 4 -13 1 -9 -9 4 -11 9 -12 19 -3
10 8 14 8 14 0 0 -6 -3 -11 -7 -12 -5 0 -16 -2 -26 -4 -9 -2 -15 0 -13 4 3 4
-4 12 -14 19 -13 7 -21 8 -25 2 -4 -6 -1 -9 5 -8 14 3 22 -29 10 -37 -5 -3
-12 0 -16 6 -5 8 -3 9 6 4 8 -5 11 -4 6 3 -4 7 -17 8 -35 2 -16 -4 -32 -6 -34
-3 -3 2 -8 -5 -12 -16 -5 -17 -9 -18 -20 -8 -7 6 -10 16 -7 21 3 5 0 6 -7 2
-6 -4 -9 -12 -6 -17 4 -5 1 -9 -5 -9 -6 0 -8 -5 -4 -12 5 -7 3 -8 -7 -2 -19
11 -60 13 -53 2 3 -4 9 -6 14 -3 5 3 11 1 14 -4 10 -15 -38 -7 -51 9 -10 13
-11 12 -7 -6 3 -12 0 -25 -7 -29 -8 -6 -10 -4 -5 4 6 8 2 11 -10 9 -25 -4 -43
-21 -36 -32 3 -5 0 -6 -6 -2 -6 4 -9 14 -6 24 4 11 -2 8 -14 -8 -11 -13 -18
-29 -15 -34 3 -5 1 -6 -6 -2 -6 4 -9 12 -6 17 4 5 -6 4 -22 -2 -15 -6 -30 -11
-33 -12 -3 -1 -4 -8 -4 -14 2 -18 -6 -16 -22 5 -13 16 -14 16 -8 0 7 -21 -6
-23 -25 -5 -8 7 -11 7 -8 1 4 -7 -5 -14 -23 -18 -17 -3 -30 -11 -30 -17 0 -8
4 -8 15 1 9 7 17 11 20 8 2 -2 -4 -12 -15 -21 -11 -9 -20 -12 -20 -6 0 5 -4 8
-9 4 -5 -3 -12 3 -14 12 -4 17 -5 17 -6 1 -1 -17 -13 -23 -35 -19 -5 1 -4 -4
3 -13 9 -11 9 -16 0 -22 -7 -4 -9 -3 -6 3 4 6 0 13 -8 17 -8 3 -17 1 -20 -5
-4 -5 -11 -6 -17 -3 -7 5 -9 1 -5 -9 4 -11 1 -17 -9 -17 -9 0 -12 -5 -8 -11 5
-8 2 -9 -12 -1 -14 8 -22 5 -37 -14 -16 -21 -22 -22 -40 -12 -19 10 -21 9 -9
-4 10 -13 10 -18 1 -24 -8 -4 -9 -3 -5 4 4 7 2 12 -3 12 -6 0 -11 -6 -11 -12
0 -9 -4 -8 -11 2 -9 12 -10 11 -6 -7 4 -19 2 -21 -20 -12 -18 6 -22 6 -17 -3
5 -8 2 -9 -10 -5 -10 4 -15 3 -11 -3 3 -6 -1 -10 -10 -10 -8 0 -18 -7 -22 -16
-5 -13 -8 -13 -15 -2 -7 9 -8 6 -5 -10 5 -20 3 -21 -11 -10 -14 11 -15 10 -9
-6 6 -16 5 -17 -8 -6 -11 9 -15 9 -15 1 0 -7 -5 -9 -11 -5 -8 4 -9 -1 -4 -17
7 -22 7 -22 -9 -6 -23 22 -32 22 -15 0 7 -10 10 -15 5 -11 -11 9 -48 -10 -41
-22 3 -4 -5 -6 -17 -2 -14 3 -19 1 -14 -6 3 -6 1 -14 -5 -18 -7 -4 -9 -3 -6 3
4 6 0 13 -8 16 -9 4 -12 1 -9 -7 7 -19 -16 -32 -27 -15 -5 8 -9 10 -9 5 0 -5
8 -19 18 -30 14 -17 12 -16 -18 4 l-35 24 20 -24 c11 -13 15 -20 8 -17 -6 4
-14 1 -16 -5 -4 -10 -6 -10 -6 0 -1 6 -5 12 -11 12 -5 0 -7 -7 -3 -15 6 -17
-16 -17 -30 0 -5 6 -5 -1 -1 -15 6 -23 6 -24 -11 -10 -17 14 -17 13 -7 -7 11
-19 10 -20 -11 -15 -19 5 -20 4 -9 -11 12 -14 11 -15 -17 -7 -29 8 -30 7 -20
-12 8 -15 8 -19 0 -14 -6 4 -11 2 -11 -5 0 -7 -7 -4 -15 7 -14 18 -14 18 -9
-2 3 -12 0 -25 -7 -29 -7 -5 -10 -4 -5 3 3 6 1 14 -5 18 -8 4 -9 3 -5 -4 4 -7
2 -12 -3 -12 -6 0 -10 -3 -10 -7 3 -19 -2 -27 -9 -16 -6 9 -11 7 -20 -7 -10
-17 -9 -18 6 -13 13 4 13 2 -3 -10 -12 -9 -24 -12 -31 -6 -7 6 -19 0 -34 -16
-13 -13 -27 -22 -31 -19 -5 3 -6 -2 -3 -11 4 -10 2 -15 -7 -13 -9 2 -14 -5
-13 -19 1 -14 -3 -20 -12 -16 -8 3 -11 10 -7 16 3 6 1 7 -6 3 -9 -6 -9 -11 0
-22 10 -12 9 -13 -6 -8 -13 5 -16 4 -11 -4 4 -7 1 -12 -8 -12 -9 0 -15 -3 -15
-7 3 -20 -2 -26 -11 -13 -8 13 -10 13 -10 -2 0 -9 6 -19 13 -22 6 -3 2 -3 -11
0 -12 3 -22 2 -21 -3 3 -20 -2 -27 -11 -13 -8 13 -10 12 -11 -5 -1 -11 -1 -24
0 -29 1 -5 -5 -4 -13 3 -13 11 -14 9 -10 -16 3 -21 2 -24 -5 -13 -9 13 -12 13
-23 1 -11 -11 -11 -13 1 -6 10 6 12 4 7 -4 -6 -8 -12 -9 -20 -2 -9 8 -13 7
-14 -4 -1 -8 -3 -22 -4 -30 -1 -16 -9 -18 -43 -16 -17 2 -17 0 -5 -8 13 -9 13
-13 -4 -28 -18 -17 -19 -17 -12 2 6 20 6 20 -9 1 -8 -11 -15 -25 -15 -30 0 -6
5 -4 10 4 5 8 10 10 10 4 0 -6 -10 -19 -22 -30 -12 -10 -18 -13 -14 -6 4 6 3
12 -3 12 -5 0 -11 -10 -13 -22 -2 -13 -10 -24 -18 -24 -8 -1 -19 -2 -24 -3 -5
0 -2 -8 5 -18 13 -15 12 -15 -11 -3 -14 7 -22 9 -18 5 4 -5 2 -15 -5 -24 -10
-14 -10 -14 4 -3 14 10 19 9 30 -5 13 -16 12 -17 -3 -4 -10 7 -19 11 -19 7 -1
-3 -2 -10 -3 -15 0 -5 -5 -13 -10 -18 -5 -5 -6 -3 -2 5 4 7 1 12 -9 12 -10 0
-13 5 -9 12 4 7 3 8 -5 4 -6 -4 -9 -12 -6 -17 7 -10 -19 -52 -27 -44 -2 3 -5
-2 -5 -10 0 -8 4 -12 9 -9 4 3 8 0 8 -5 0 -10 -17 -15 -47 -14 -7 1 -10 -3 -7
-8 3 -5 -2 -16 -10 -25 -9 -8 -16 -21 -16 -29 0 -7 -9 -15 -19 -18 -16 -4 -19
-12 -17 -43 2 -22 1 -33 -1 -26 -4 10 -8 10 -21 0 -14 -10 -15 -10 -4 2 6 8
12 18 12 24 0 5 -6 1 -14 -9 -8 -11 -12 -23 -10 -27 3 -5 0 -8 -5 -8 -6 0 -11
-5 -11 -11 0 -5 4 -8 9 -4 5 3 13 0 17 -7 4 -7 4 -10 -1 -6 -10 9 -37 -11 -30
-22 6 -10 -15 -8 -32 3 -8 5 -11 1 -8 -12 2 -11 -3 -22 -12 -25 -12 -5 -13 -9
-3 -21 15 -18 0 -20 -20 -2 -12 10 -12 9 -2 -4 6 -9 8 -20 4 -24 -4 -5 -1 -5
7 0 10 6 12 4 7 -4 -5 -7 -14 -10 -22 -7 -8 3 -13 2 -13 -2 3 -20 -2 -33 -11
-27 -6 3 -7 -1 -4 -9 4 -9 1 -16 -6 -16 -7 0 -10 -7 -7 -15 4 -8 1 -17 -5 -21
-6 -4 -8 -3 -5 3 3 5 1 10 -6 10 -7 0 -13 -8 -13 -18 0 -10 5 -15 10 -12 5 4
6 1 2 -6 -5 -7 -15 -10 -23 -7 -8 3 -11 1 -8 -4 3 -5 -2 -22 -12 -37 -12 -18
-13 -24 -4 -19 9 6 12 5 9 -5 -3 -8 -12 -13 -20 -13 -11 1 -15 -7 -14 -27 2
-24 0 -26 -13 -16 -12 9 -11 5 2 -16 18 -28 18 -28 -3 -17 -15 8 -20 8 -16 1
4 -6 3 -11 -1 -11 -5 0 -8 -13 -7 -29 1 -18 -4 -32 -12 -35 -12 -5 -12 -2 -3
15 17 33 5 31 -13 -2 -10 -17 -14 -27 -8 -24 5 3 11 1 15 -5 3 -6 -4 -10 -17
-11 -22 0 -22 -1 -3 -9 11 -5 15 -9 8 -9 -7 -1 -10 -8 -6 -18 5 -15 3 -14 -10
2 -16 20 -16 20 -12 -3 5 -27 -3 -52 -17 -52 -6 0 -6 6 1 14 9 11 9 16 0 22
-7 4 -9 3 -5 -4 3 -6 2 -13 -4 -17 -7 -4 -6 -14 2 -28 11 -21 10 -21 -8 -7
-10 8 -16 10 -12 6 4 -5 3 -15 -3 -23 -9 -10 -8 -17 2 -30 10 -11 10 -14 2 -9
-19 11 -16 -4 5 -27 17 -20 17 -20 -11 -2 -15 10 -27 14 -25 9 1 -5 -4 -20
-11 -33 -11 -19 -11 -23 1 -19 7 3 13 10 13 16 0 5 3 14 7 18 4 3 5 -4 3 -17
-3 -13 -9 -25 -15 -27 -6 -2 -8 -7 -5 -12 3 -4 -3 -14 -13 -21 -15 -13 -16
-12 -4 3 10 12 10 18 1 24 -7 4 -9 3 -5 -4 3 -6 2 -13 -4 -17 -6 -4 -8 -11 -5
-16 11 -17 14 -50 4 -44 -5 4 -7 10 -4 15 3 5 1 11 -4 15 -6 3 -8 -4 -6 -16 3
-16 0 -20 -13 -15 -14 5 -13 3 2 -9 11 -8 17 -18 13 -21 -4 -4 -15 -1 -24 7
-16 13 -17 12 -5 -3 10 -12 11 -26 4 -52 -6 -19 -7 -38 -4 -42 4 -5 -1 -2 -11
5 -15 12 -17 12 -11 -4 5 -11 1 -22 -10 -30 -15 -11 -15 -13 -1 -19 9 -3 13
-2 10 4 -3 6 -1 10 5 10 7 0 10 -6 8 -12 -3 -7 -10 -13 -15 -13 -17 0 -28 -15
-12 -16 8 -1 18 -1 22 0 5 1 6 -3 2 -9 -3 -6 -11 -8 -16 -5 -5 4 -17 1 -26 -5
-16 -10 -16 -11 -1 -6 13 4 16 0 13 -16 -3 -11 -7 -23 -11 -27 -4 -3 -4 2 -1
12 4 10 3 16 -2 13 -5 -3 -8 -17 -8 -31 0 -22 2 -24 15 -13 9 7 5 -3 -10 -22
-15 -20 -25 -47 -24 -62 1 -16 -2 -28 -6 -28 -4 0 -8 -4 -8 -10 0 -5 8 -7 18
-4 16 5 16 5 -1 -6 -9 -6 -23 -8 -30 -4 -8 6 -8 3 1 -8 8 -9 21 -14 30 -11 14
4 15 3 2 -5 -8 -6 -19 -8 -25 -4 -5 3 -4 -2 4 -11 7 -10 9 -17 3 -17 -11 0
-11 -18 1 -37 5 -7 3 -21 -2 -30 -9 -16 -10 -15 -8 6 1 13 -4 26 -12 29 -8 2
-11 0 -8 -5 4 -6 0 -18 -7 -29 -14 -18 -11 -48 3 -39 7 4 7 -16 2 -58 -1 -5
-7 -5 -13 -1 -7 4 -10 4 -6 -1 4 -4 3 -14 -4 -22 -9 -11 -8 -13 2 -11 7 2 15
-3 18 -11 3 -9 0 -11 -8 -6 -10 6 -12 4 -7 -9 5 -13 3 -17 -7 -13 -10 4 -12 0
-8 -15 4 -16 2 -19 -9 -13 -11 7 -12 6 -2 -7 7 -8 9 -19 5 -23 -4 -5 -2 -5 4
-2 7 4 18 -1 25 -11 13 -15 12 -16 -3 -3 -11 8 -18 9 -18 3 0 -7 -7 -9 -17 -5
-17 7 -17 6 0 -11 16 -17 16 -43 0 -86 -10 -24 -10 -34 0 -47 5 -7 6 -13 3
-13 -4 0 -2 -10 4 -22 10 -20 9 -21 -2 -6 -7 9 -19 25 -26 35 -7 10 -5 4 3
-14 10 -22 12 -34 4 -38 -6 -4 -8 -14 -5 -22 5 -11 2 -13 -9 -9 -10 3 -13 2
-10 -5 4 -5 16 -7 28 -4 15 4 18 3 9 -3 -15 -10 -13 -63 3 -74 6 -4 2 -8 -9
-8 -12 0 -16 5 -12 16 3 8 2 12 -3 9 -15 -8 -9 -46 6 -41 7 3 15 0 19 -6 5 -7
2 -8 -6 -3 -9 5 -10 2 -6 -13 4 -11 2 -23 -3 -27 -7 -3 -8 0 -5 9 3 9 2 16 -4
16 -6 0 -9 -8 -7 -17 2 -10 4 -22 4 -26 1 -5 5 -6 9 -3 5 3 9 -1 9 -8 0 -8 -6
-12 -12 -10 -6 3 -12 -2 -12 -10 0 -8 4 -13 9 -10 4 3 8 0 8 -7 0 -8 5 -7 18
2 15 13 16 12 3 -3 -7 -10 -17 -15 -22 -12 -9 5 -11 -2 -11 -31 0 -30 2 -36
13 -29 8 5 8 1 0 -14 -13 -25 -14 -35 -2 -27 5 3 13 0 17 -6 4 -8 3 -9 -4 -5
-7 4 -12 3 -12 -3 0 -5 5 -13 10 -16 6 -3 10 -11 10 -17 0 -5 -9 0 -20 13 -10
13 -19 18 -20 12 0 -7 5 -13 10 -13 6 0 10 -7 10 -16 0 -8 -4 -12 -10 -9 -5 3
-10 1 -10 -5 0 -7 9 -9 23 -5 l22 7 -22 -17 c-22 -15 -22 -17 -6 -42 24 -36
25 -56 5 -72 -14 -11 -14 -13 -1 -8 9 3 21 -3 28 -15 7 -11 8 -17 3 -14 -15 9
-21 -16 -9 -39 10 -19 9 -19 -9 -5 -18 14 -18 14 -5 -2 7 -10 11 -29 9 -43 -3
-13 -2 -22 2 -20 4 3 16 -8 25 -23 18 -27 18 -27 -2 -9 -14 12 -23 15 -28 8
-3 -6 -2 -11 4 -11 5 0 8 -11 7 -25 -2 -13 1 -22 5 -19 13 8 11 -10 -3 -25
-10 -11 -10 -13 0 -7 6 4 12 2 12 -4 0 -6 4 -9 8 -6 4 2 9 -6 10 -20 1 -13 -4
-24 -10 -24 -7 0 -3 -7 8 -16 15 -13 16 -15 2 -10 -12 3 -15 1 -11 -9 3 -8 10
-12 17 -8 6 4 5 -1 -3 -10 -7 -9 -10 -17 -6 -17 4 0 1 -8 -6 -17 -11 -15 -11
-16 1 -5 19 17 35 15 20 -3 -15 -18 -3 -38 19 -31 9 3 6 -2 -6 -10 -22 -16
-31 -35 -15 -33 32 5 42 -19 12 -33 -12 -5 -12 -7 3 -7 19 -1 24 -21 5 -21 -9
0 -8 -3 2 -10 9 -6 17 -5 23 3 6 8 7 8 4 -3 -2 -8 -9 -15 -14 -15 -6 0 -15 -4
-20 -9 -5 -5 -3 -6 5 -2 11 7 17 -12 13 -37 -1 -5 3 -6 9 -2 5 3 10 -1 10 -10
0 -9 -5 -13 -11 -9 -8 5 -8 1 0 -13 6 -11 7 -24 3 -28 -4 -3 -2 -6 3 -5 23 5
34 -1 32 -19 0 -11 -5 -17 -9 -15 -4 3 -5 -2 -2 -10 3 -9 11 -13 18 -9 6 4 4
-1 -4 -12 -14 -17 -13 -17 10 -12 14 4 19 4 13 1 -19 -8 -16 -64 4 -86 13 -15
14 -19 3 -16 -8 2 -15 -3 -16 -9 -1 -7 -3 -16 -4 -20 -1 -5 -2 -12 0 -18 1 -5
-9 -1 -21 10 l-22 20 19 -30 c18 -30 18 -30 -2 -13 -22 20 -47 7 -37 -19 3 -7
2 -13 -3 -12 -22 4 -34 -2 -34 -18 0 -15 1 -15 13 1 12 16 14 16 14 2 0 -9 -3
-16 -6 -17 -3 0 -16 -2 -29 -3 -12 -2 -28 -9 -35 -16 -10 -10 -9 -11 2 -5 9 5
12 4 7 -3 -3 -5 0 -13 6 -15 9 -4 9 -6 1 -6 -17 -1 -44 29 -37 41 4 7 2 8 -4
4 -6 -4 -8 -14 -5 -23 4 -11 3 -14 -5 -9 -8 4 -10 2 -6 -7 3 -8 0 -18 -7 -23
-8 -5 -10 -3 -4 5 6 10 3 11 -11 3 -11 -6 -23 -12 -29 -14 -5 -1 -9 -7 -7 -11
1 -4 -6 -7 -15 -5 -12 2 -17 -3 -15 -15 3 -18 -17 -20 -31 -2 -5 6 -6 2 -3 -8
4 -13 1 -17 -12 -15 -12 2 -18 -5 -20 -24 -2 -16 -8 -28 -13 -28 -6 0 -7 4 -4
10 3 6 -1 7 -9 4 -11 -4 -13 -11 -6 -23 7 -14 5 -17 -13 -16 -39 3 -76 -15
-70 -33 6 -14 4 -15 -9 -4 -13 10 -19 10 -31 -2 -8 -8 -17 -13 -21 -11 -3 3
-4 2 -1 -2 8 -10 36 -13 30 -2 -4 5 1 6 9 3 9 -3 16 -9 16 -13 0 -10 -52 -8
-70 3 -12 8 -13 7 -4 -5 13 -17 12 -39 -1 -38 -5 0 -9 8 -7 17 2 15 1 15 -8
-1 -6 -9 -8 -22 -5 -27 4 -7 -3 -7 -19 0 -19 7 -25 6 -23 -2 1 -7 -4 -13 -10
-14 -7 -1 -16 -3 -20 -4 -5 -1 -11 -2 -15 -1 -8 1 -5 -20 7 -39 7 -11 1 -10
-20 4 l-30 19 20 -23 20 -23 -25 13 c-21 11 -23 11 -13 -1 9 -11 8 -19 -3 -33
-8 -11 -14 -15 -14 -10 0 6 5 15 12 22 9 9 9 12 1 12 -7 0 -15 -5 -18 -10 -4
-6 -12 -7 -18 -3 -7 4 -5 -2 3 -12 14 -17 14 -18 -10 -5 l-25 13 20 -22 19
-22 -29 11 c-29 10 -29 9 -10 -6 l20 -17 -20 7 c-34 12 -39 12 -43 -8 -2 -12
0 -16 7 -11 6 3 8 11 5 17 -4 7 -2 8 4 4 12 -7 5 -36 -8 -36 -5 0 -12 5 -16
11 -4 8 -9 7 -14 -2 -7 -10 -12 -10 -26 2 -16 12 -17 12 -8 -1 5 -8 9 -25 9
-37 1 -18 -2 -20 -14 -10 -12 10 -13 8 -8 -13 5 -22 5 -23 -7 -8 -7 10 -16 15
-19 11 -4 -3 -7 -1 -7 6 0 7 -5 9 -10 6 -6 -4 -1 -14 11 -24 16 -13 19 -20 10
-25 -7 -4 -10 -2 -9 4 2 7 -5 14 -14 15 -16 3 -16 1 -2 -23 10 -16 11 -21 3
-12 -21 22 -54 47 -46 33 4 -6 3 -14 -2 -18 -5 -3 -8 -14 -6 -25 4 -20 -14
-18 -45 4 -13 10 -13 9 -1 -6 11 -15 11 -19 -2 -24 -9 -3 -13 -12 -10 -21 4
-11 2 -14 -5 -9 -13 8 -40 -4 -42 -17 -1 -5 7 -15 17 -23 16 -14 16 -14 -5 -4
-29 14 -56 5 -48 -15 3 -8 0 -14 -7 -12 -7 1 -11 -4 -9 -10 1 -7 -2 -13 -8
-13 -13 0 -13 6 1 33 10 21 10 21 -5 3 -9 -11 -16 -24 -16 -29 0 -5 -6 -7 -14
-4 -8 3 -17 0 -20 -8 -3 -10 0 -12 12 -8 9 3 15 4 12 2 -39 -33 -52 -42 -47
-33 4 7 0 14 -8 17 -10 4 -12 1 -8 -10 5 -12 2 -15 -10 -10 -12 5 -24 -4 -43
-33 -15 -22 -30 -38 -34 -35 -8 5 -24 -24 -21 -38 1 -5 -3 -6 -9 -2 -8 5 -7
11 1 21 10 12 9 13 -5 8 -9 -3 -16 -18 -17 -33 0 -23 -1 -24 -9 -6 -6 14 -9
16 -10 5 -2 -8 -2 -19 -1 -23 1 -4 -5 -14 -13 -22 -12 -13 -15 -12 -22 3 -4 9
-6 22 -5 27 2 6 -1 6 -5 2 -13 -13 -13 -38 -1 -31 7 4 7 2 -1 -7 -10 -11 -16
-11 -35 0 -18 11 -20 11 -9 0 16 -18 15 -32 -2 -26 -10 4 -13 1 -9 -8 3 -8 10
-12 16 -8 6 3 7 1 3 -6 -6 -9 -11 -9 -21 -1 -9 8 -14 6 -19 -5 -3 -9 -10 -14
-15 -11 -5 3 -15 -2 -22 -11 -8 -9 -9 -14 -3 -10 6 3 11 0 11 -8 0 -11 -5 -11
-19 -4 -24 13 -49 -5 -41 -29 6 -15 5 -16 -12 -2 -17 14 -18 14 -6 -7 6 -13 9
-24 6 -24 -3 -1 -8 -2 -12 -3 -5 -1 -15 -5 -23 -11 -13 -8 -13 -7 -1 8 7 9 18
14 24 10 6 -4 7 -1 3 6 -6 9 -12 9 -25 -3 -10 -9 -21 -13 -26 -9 -4 5 -3 -2 3
-13 11 -20 9 -22 -18 -20 -16 1 -27 0 -25 -2 2 -3 -7 -13 -20 -24 -14 -11 -25
-26 -25 -34 0 -8 -5 -14 -11 -14 -5 0 -7 6 -3 13 5 8 2 8 -9 -2 -18 -15 -23
-26 -7 -16 6 3 10 1 10 -4 0 -10 -14 -15 -34 -12 -5 1 -6 -6 -2 -15 6 -15 4
-15 -11 -3 -10 7 -14 9 -10 4 4 -5 -3 -15 -15 -22 -22 -11 -21 -12 10 -8 18 2
30 0 28 -4 -3 -4 -21 -7 -40 -6 -19 0 -32 -3 -30 -7 3 -4 0 -8 -5 -8 -6 0 -11
-5 -11 -11 0 -5 6 -7 13 -3 8 6 8 3 -2 -9 -11 -13 -17 -14 -35 -5 -18 10 -19
9 -9 -3 8 -10 9 -19 1 -29 -8 -12 -9 -12 -4 3 3 9 1 17 -4 17 -10 0 -14 -14
-10 -40 1 -10 -3 -9 -14 5 -15 20 -15 20 -11 -1 3 -18 0 -21 -17 -16 -16 4
-20 2 -15 -10 4 -11 0 -15 -11 -13 -24 4 -45 -15 -33 -29 8 -9 2 -12 -19 -10
-20 1 -27 -2 -23 -12 3 -9 -2 -12 -17 -9 -13 2 -19 1 -16 -3 4 -4 12 -7 17 -7
5 0 9 -3 9 -7 0 -5 0 -10 0 -13 0 -3 -10 0 -23 6 -12 6 -19 8 -15 4 5 -5 -1
-15 -13 -23 -15 -10 -17 -17 -9 -27 9 -11 7 -12 -9 -8 -13 3 -21 1 -21 -6 0
-7 -4 -9 -10 -6 -5 3 -10 1 -10 -5 0 -7 -7 -9 -16 -6 -14 5 -15 4 -5 -8 8 -10
9 -16 1 -21 -6 -3 -7 -11 -4 -17 4 -6 2 -8 -3 -5 -6 4 -18 -2 -28 -12 -9 -11
-25 -18 -36 -16 -10 2 -22 -1 -25 -7 -4 -7 -2 -8 4 -4 7 4 12 1 12 -9 0 -11
-5 -15 -15 -12 -8 4 -17 2 -20 -3 -3 -4 1 -11 7 -13 7 -3 4 -6 -7 -6 -12 -1
-27 5 -35 12 -12 10 -12 9 -3 -3 13 -17 12 -45 -2 -57 -4 -4 -5 -3 -2 3 4 7
-2 14 -15 17 -16 4 -18 3 -9 -6 15 -15 14 -32 -1 -20 -21 15 -43 9 -43 -12 -1
-12 -7 -19 -15 -17 -11 3 -11 0 0 -13 11 -13 10 -15 -3 -10 -8 4 -18 1 -22 -4
-3 -6 -11 -8 -17 -5 -7 4 -8 2 -4 -5 6 -9 11 -9 21 -1 9 8 15 8 20 0 7 -11 5
-12 -27 -14 -12 0 -23 -7 -26 -15 -3 -9 0 -11 8 -6 8 5 11 4 6 -3 -3 -6 -16
-9 -27 -7 -15 3 -19 0 -15 -11 3 -8 2 -12 -3 -9 -5 3 -12 1 -16 -5 -4 -6 -11
-8 -16 -5 -5 3 -6 -1 -3 -9 3 -9 1 -16 -5 -16 -6 0 -11 6 -11 13 0 8 -3 7 -9
-3 -6 -8 -7 -18 -5 -22 3 -4 -3 -8 -13 -8 -15 0 -16 -2 -3 -11 12 -9 11 -10
-7 -6 -17 4 -21 1 -18 -15 3 -15 1 -17 -9 -9 -10 8 -18 5 -32 -11 -10 -12 -13
-18 -6 -14 6 4 12 2 12 -3 0 -6 -5 -11 -11 -11 -5 0 -7 -6 -3 -12 6 -10 4 -10
-8 0 -11 9 -18 10 -23 2 -3 -5 -1 -10 4 -10 6 0 11 -4 11 -9 0 -5 -9 -7 -20
-4 -11 3 -21 0 -21 -6 -1 -6 -2 -16 -3 -23 0 -6 -11 -12 -23 -13 -13 -1 -26
-5 -30 -10 -5 -4 0 -5 10 -2 11 4 16 3 12 -3 -3 -6 -15 -10 -26 -10 -11 0 -18
-4 -14 -9 3 -5 -4 -12 -15 -16 -18 -6 -25 -23 -21 -48 1 -5 -3 -6 -8 -2 -6 3
-8 13 -5 23 5 14 4 15 -5 2 -6 -8 -11 -24 -11 -35 0 -17 -2 -18 -11 -5 -9 12
-10 10 -6 -8 4 -18 3 -21 -7 -12 -10 7 -17 6 -27 -7 -8 -9 -9 -14 -2 -10 6 4
14 3 17 -2 4 -5 -5 -8 -19 -6 -14 1 -28 -2 -32 -8 -3 -6 -1 -7 5 -3 6 3 14 1
18 -5 5 -8 -1 -10 -19 -7 -22 4 -25 3 -17 -12 14 -26 0 -33 -24 -13 -17 15
-18 15 -8 2 10 -14 10 -18 -3 -23 -8 -3 -15 -10 -15 -16 0 -6 6 -8 13 -4 9 6
9 4 0 -6 -11 -12 -15 -11 -28 6 -15 18 -15 18 -8 0 5 -14 3 -17 -6 -11 -10 6
-11 3 -2 -12 9 -18 7 -20 -17 -19 -20 1 -26 -3 -24 -15 3 -19 -61 -72 -74 -61
-5 4 -4 0 3 -7 10 -11 9 -17 -5 -27 -21 -17 -36 -18 -26 -2 4 7 3 8 -5 4 -6
-4 -9 -11 -6 -16 3 -5 1 -11 -4 -15 -6 -3 -8 -13 -5 -23 5 -14 4 -15 -5 -2 -8
12 -13 12 -23 2 -10 -10 -10 -15 2 -23 11 -7 5 -8 -20 -5 -19 3 -29 3 -22 0
18 -8 15 -27 -3 -20 -13 4 -13 2 -5 -14 13 -24 13 -40 -1 -17 -9 15 -12 15
-25 3 -15 -16 -19 -30 -6 -22 5 3 9 -1 9 -9 0 -10 -6 -10 -26 3 -23 15 -25 15
-13 1 10 -14 9 -17 -7 -22 -11 -3 -22 0 -25 7 -3 6 -5 4 -5 -4 2 -30 -1 -40
-13 -38 -7 2 -12 -5 -10 -14 1 -9 -3 -20 -9 -24 -7 -4 -9 -3 -6 3 3 5 0 10 -8
10 -10 0 -11 -5 -4 -18 14 -27 11 -35 -6 -13 -14 18 -14 18 -10 -4 2 -14 -2
-25 -10 -29 -8 -3 -12 -10 -8 -16 4 -6 1 -7 -7 -2 -10 6 -9 11 5 22 11 7 13
13 6 13 -7 0 -9 5 -5 12 4 7 3 8 -5 4 -6 -4 -9 -12 -6 -17 4 -5 -1 -12 -10
-15 -12 -5 -13 -9 -4 -20 7 -8 9 -17 5 -21 -3 -3 -6 -2 -6 4 0 6 -7 14 -16 17
-14 5 -15 4 -4 -9 11 -13 9 -15 -11 -15 -13 0 -19 -4 -14 -8 6 -4 11 -14 13
-22 3 -11 -2 -9 -18 5 -20 18 -21 18 -14 0 5 -12 4 -16 -4 -11 -8 5 -10 1 -5
-10 4 -12 3 -15 -5 -10 -7 4 -12 2 -12 -5 0 -7 -3 -10 -6 -6 -4 3 -13 -1 -21
-9 -13 -12 -13 -17 -1 -31 9 -12 9 -15 1 -9 -7 4 -22 9 -33 11 -19 4 -19 3 -3
-23 17 -26 17 -26 0 -13 -15 12 -17 11 -17 -3 0 -19 -20 -21 -40 -3 -9 7 -8 4
1 -8 9 -11 14 -26 12 -33 -4 -10 -9 -8 -19 5 -12 17 -13 16 -7 -5 4 -19 2 -21
-13 -15 -18 6 -18 6 -1 -14 14 -16 14 -20 2 -20 -8 0 -12 4 -9 9 3 4 0 8 -6 8
-6 0 -15 -11 -20 -24 -11 -31 -30 -42 -41 -25 -7 10 -8 6 -5 -12 4 -23 1 -26
-17 -22 -18 4 -19 3 -7 -6 13 -9 13 -12 1 -23 -11 -11 -13 -11 -6 1 6 10 4 12
-4 7 -7 -5 -10 -14 -7 -21 3 -9 -1 -12 -13 -10 -26 5 -48 -10 -26 -18 10 -5
14 -3 9 5 -4 7 -3 8 5 4 16 -10 4 -26 -14 -19 -18 6 -19 -8 -2 -27 6 -8 2 -6
-10 4 -23 19 -23 19 -24 0 -1 -10 -1 -22 0 -27 2 -12 -17 -8 -22 6 -4 9 -6 9
-6 -1 -1 -7 -5 -10 -11 -7 -6 4 -7 -1 -3 -11 4 -11 3 -15 -5 -10 -7 4 -10 0
-7 -12 2 -15 -2 -18 -21 -16 -13 1 -27 -3 -31 -8 -3 -7 -1 -8 5 -4 7 4 12 3
12 -2 0 -6 -7 -13 -16 -16 -14 -5 -14 -9 -3 -23 13 -15 12 -15 -7 -5 -28 15
-38 3 -17 -20 9 -10 11 -18 5 -18 -6 0 -12 6 -15 13 -3 8 -14 3 -33 -16 -24
-23 -27 -29 -14 -37 8 -5 10 -10 5 -10 -6 0 -17 6 -24 13 -11 9 -12 9 -7 0 4
-7 2 -21 -4 -30 -11 -17 -11 -17 -6 0 3 11 2 15 -4 12 -6 -3 -10 -13 -10 -21
0 -8 -7 -17 -15 -20 -8 -4 -12 -10 -9 -15 3 -5 -5 -9 -18 -9 -19 0 -20 -2 -8
-11 11 -8 8 -9 -15 -5 -21 5 -26 4 -16 -3 13 -8 12 -12 -5 -28 -11 -10 -15
-15 -9 -11 7 5 12 2 12 -6 0 -8 -11 -13 -26 -12 -18 1 -27 -5 -29 -19 -6 -28
-22 -46 -36 -38 -6 3 -8 3 -4 -1 4 -5 -5 -19 -20 -33 -15 -14 -18 -19 -8 -12
18 13 18 13 7 -9 -7 -13 -17 -20 -24 -15 -7 4 -5 -2 3 -12 14 -17 14 -18 -7
-7 -18 10 -20 9 -16 -8 4 -14 -3 -23 -28 -34 -19 -9 -24 -13 -12 -10 17 4 21
2 17 -10 -3 -9 -14 -13 -30 -10 -22 4 -23 2 -12 -10 7 -7 16 -12 20 -9 4 2 5
-4 1 -13 -4 -11 -8 -13 -11 -6 -2 7 -8 12 -14 12 -6 0 -7 -7 -4 -15 3 -9 0
-18 -8 -21 -7 -3 -13 -11 -13 -19 0 -8 5 -11 10 -8 6 4 8 -3 4 -16 -3 -15 0
-24 10 -28 12 -5 12 -8 1 -15 -9 -7 -6 -8 10 -5 19 5 21 3 11 -9 -6 -8 -9 -17
-5 -21 3 -3 6 -2 6 4 0 5 7 10 15 10 13 0 12 -4 -2 -20 -18 -19 -17 -20 7 -6
14 8 28 19 32 24 5 7 8 6 8 0 0 -6 -4 -15 -10 -21 -6 -6 -2 -16 12 -28 18 -15
20 -16 15 -2 -4 9 -2 16 3 16 10 0 13 -9 13 -41 0 -11 8 -16 26 -15 21 1 26
-4 25 -21 0 -18 2 -20 13 -12 7 6 11 14 9 18 -3 4 4 7 15 7 18 0 18 -2 5 -12
-17 -12 -22 -29 -6 -19 5 3 10 -1 10 -10 0 -12 6 -15 23 -10 17 5 18 4 7 -4
-12 -8 -8 -16 23 -47 20 -21 37 -33 37 -28 1 5 7 -4 15 -21 7 -16 14 -24 14
-17 1 6 6 12 12 12 5 0 8 -4 5 -9 -3 -5 5 -12 19 -15 16 -4 25 -13 25 -26 0
-20 6 -23 43 -23 13 0 15 -3 6 -13 -14 -17 -23 -18 -13 -2 4 7 3 8 -5 4 -21
-13 -1 -27 22 -15 22 12 22 12 2 -10 l-19 -22 28 11 c16 6 31 8 34 5 3 -3 0
-5 -6 -5 -7 0 -12 -4 -12 -10 0 -15 21 -12 44 7 19 15 19 15 -1 -7 l-22 -23
21 -19 c13 -11 16 -18 8 -18 -7 0 -10 -3 -7 -6 4 -4 14 -1 24 7 11 9 14 10 9
1 -4 -6 -3 -12 3 -12 5 0 12 6 15 13 3 6 3 1 0 -12 -5 -18 -3 -22 7 -17 8 4 5
1 -5 -8 -18 -15 -18 -15 9 -13 18 1 30 -3 32 -13 4 -13 3 -13 -6 0 -7 9 -11
10 -11 3 0 -21 18 -24 30 -6 8 13 10 14 9 3 -3 -31 1 -39 19 -34 14 5 14 3 -3
-11 -20 -17 -20 -17 4 -10 17 5 22 4 16 -5 -6 -10 -1 -12 18 -8 23 4 25 3 17
-13 -17 -31 -11 -33 17 -8 14 13 22 17 17 9 -4 -8 -10 -24 -12 -35 -3 -20 -3
-20 13 0 12 16 14 17 9 3 -3 -10 -3 -18 2 -18 4 0 17 8 28 18 21 17 21 17 3
-4 -21 -25 -22 -35 -3 -28 12 4 14 -1 10 -23 -5 -27 -5 -27 10 -8 9 12 16 15
17 8 1 -7 2 -17 3 -23 0 -5 7 -15 14 -22 11 -11 12 -10 7 5 -4 10 -2 17 4 17
6 0 11 -9 11 -19 0 -10 7 -22 16 -25 14 -5 15 -4 4 9 -11 13 -10 14 4 9 16 -6
22 -29 9 -37 -5 -2 -3 -3 2 -2 16 3 46 -10 48 -20 2 -21 22 -33 34 -23 9 7 15
5 19 -8 4 -11 9 -23 12 -28 3 -5 0 -6 -6 -2 -6 3 -13 2 -16 -3 -4 -5 2 -8 11
-6 10 2 18 4 18 5 0 1 8 3 18 5 9 2 15 -1 11 -6 -3 -5 -10 -7 -15 -4 -5 4 -9
-2 -9 -11 0 -10 3 -14 7 -11 3 4 12 -1 20 -11 8 -9 12 -12 9 -7 -2 6 5 17 17
25 20 12 21 12 8 -4 -12 -15 -12 -20 6 -44 12 -15 28 -26 37 -26 9 1 17 -2 17
-7 1 -5 3 -13 4 -19 1 -5 3 -13 4 -17 0 -3 9 2 20 11 18 16 18 16 13 -10 -3
-19 -1 -25 7 -20 6 4 11 2 11 -3 0 -6 5 -11 11 -11 5 0 7 5 3 12 -4 6 -3 8 4
4 6 -3 9 -15 7 -25 -2 -10 3 -18 10 -18 7 0 11 7 9 16 -3 9 3 0 13 -19 12 -23
25 -34 36 -32 20 3 22 -8 5 -28 -11 -12 -10 -12 2 -3 10 8 21 9 30 3 13 -8 13
-10 1 -10 -8 0 -12 -2 -9 -5 3 -3 17 -1 32 5 15 5 25 6 22 1 -4 -5 -3 -11 1
-14 5 -2 3 -2 -4 -1 -7 2 -15 -2 -19 -8 -5 -7 -2 -8 6 -3 10 6 12 4 6 -11 -6
-15 -5 -17 5 -6 16 15 33 16 23 0 -5 -8 -2 -9 9 -5 12 5 17 1 17 -12 0 -24 25
-46 35 -31 5 8 11 6 19 -6 8 -11 18 -14 27 -9 8 5 11 5 7 0 -4 -4 4 -16 18
-27 13 -11 31 -32 39 -48 11 -21 21 -28 39 -26 19 2 24 -1 21 -15 -2 -12 2
-19 11 -19 9 0 12 -5 8 -12 -5 -7 -3 -8 5 -3 9 5 10 10 2 18 -19 19 -12 28 7
9 17 -16 18 -19 3 -37 -10 -13 -11 -16 -1 -7 17 14 34 16 25 2 -3 -5 3 -10 14
-10 12 0 21 -5 21 -11 0 -5 -5 -7 -12 -3 -7 4 -8 3 -4 -4 4 -6 13 -9 20 -6 7
3 19 -3 27 -13 13 -17 13 -17 -6 -3 -20 15 -20 14 -1 -8 15 -17 22 -19 33 -11
7 7 16 9 20 5 3 -3 2 -6 -4 -6 -5 0 -10 -7 -10 -15 0 -13 3 -13 19 2 11 9 18
11 18 5 0 -7 -4 -12 -10 -12 -5 0 -10 -5 -10 -11 0 -6 9 -8 20 -4 15 5 18 3
14 -9 -4 -11 0 -16 11 -16 10 0 14 5 9 13 -4 7 -3 9 2 4 5 -5 9 -18 9 -30 0
-16 6 -21 19 -19 11 2 15 -1 11 -7 -3 -7 0 -8 9 -5 9 3 13 11 9 18 -3 6 0 5 8
-2 14 -13 15 -17 18 -48 0 -8 6 -12 11 -9 6 4 8 11 5 16 -10 15 2 10 16 -8 10
-11 10 -14 2 -9 -7 4 -13 2 -13 -3 0 -6 9 -11 20 -11 11 0 20 -7 20 -15 0 -8
9 -15 20 -15 11 0 20 -7 20 -15 0 -8 5 -15 11 -15 5 0 7 6 3 13 -5 8 -2 7 9
-2 14 -11 15 -17 5 -30 -7 -9 -8 -13 -4 -9 5 4 17 -2 27 -13 11 -13 20 -16 24
-9 5 8 11 8 21 -1 7 -6 11 -15 8 -20 -3 -5 5 -9 18 -10 13 0 17 -3 11 -6 -20
-8 -15 -22 6 -16 12 3 20 -2 24 -16 3 -13 11 -19 19 -16 7 3 22 -2 33 -10 19
-16 19 -16 -2 -6 -12 6 -24 7 -27 3 -3 -5 0 -9 7 -10 7 -1 23 -3 37 -5 14 -2
26 -11 28 -20 2 -9 13 -17 25 -19 12 -2 22 -8 22 -15 0 -6 3 -15 7 -19 4 -4 2
-14 -5 -23 -11 -14 -10 -14 6 -2 13 11 20 11 32 1 8 -6 18 -9 23 -6 6 3 15 -1
22 -10 7 -8 19 -13 26 -10 15 6 7 -25 -10 -36 -6 -4 6 -6 27 -4 43 3 66 -20
44 -44 -9 -10 -9 -11 0 -6 13 7 50 -8 46 -18 -2 -3 -1 -6 2 -6 12 1 33 -26 27
-34 -3 -5 0 -6 5 -3 6 4 16 0 23 -8 7 -8 19 -15 26 -15 8 0 14 -5 14 -11 0 -6
9 -8 23 -4 22 7 22 7 2 -10 -11 -9 -15 -14 -8 -11 15 8 44 -4 37 -15 -3 -5 4
-9 15 -9 11 0 22 -9 26 -20 6 -20 13 -23 50 -21 11 0 14 -2 8 -5 -18 -8 -16
-25 2 -18 8 4 15 1 15 -5 0 -6 7 -11 15 -11 8 0 15 -5 15 -11 0 -5 5 -7 10 -4
6 3 10 -1 10 -9 0 -8 9 -18 20 -21 11 -4 18 -10 15 -15 -3 -5 -1 -11 4 -14 5
-4 13 -1 17 5 5 8 3 9 -6 4 -9 -5 -11 -4 -6 4 6 9 11 9 22 0 16 -13 19 -33 4
-24 -5 3 -10 1 -10 -4 0 -14 6 -14 30 -1 13 7 21 7 25 0 4 -6 10 -8 14 -6 4 3
8 -1 8 -9 0 -13 -3 -13 -17 0 -16 14 -18 14 -24 0 -3 -9 -2 -13 4 -10 6 3 22
-2 38 -13 15 -10 41 -17 57 -16 17 1 24 0 18 -3 -22 -8 -14 -25 8 -18 15 5 19
4 14 -4 -7 -13 34 -9 57 5 8 5 7 0 -2 -11 -14 -17 -14 -18 7 -7 28 15 36 15
26 0 -4 -7 5 -5 20 5 14 9 30 17 34 17 4 0 1 -5 -7 -10 -11 -7 -3 -9 27 -7 32
1 39 5 31 15 -8 10 -6 11 8 5 16 -6 17 -4 7 8 -11 13 -8 19 12 37 14 12 25 29
25 37 0 8 5 15 11 15 5 0 7 -5 3 -12 -4 -6 -3 -8 3 -5 6 4 8 17 6 29 -2 13 3
32 12 43 16 20 16 20 6 -1 -7 -15 -7 -21 3 -21 8 0 12 11 11 28 -1 16 3 26 8
22 5 -3 6 3 3 15 -4 11 -3 23 2 26 6 3 9 -2 8 -11 0 -9 5 -17 12 -19 7 -1 8 0
3 2 -6 3 -7 12 -4 20 3 7 10 11 17 8 6 -3 2 2 -9 11 -20 17 -20 17 3 10 19 -5
22 -3 22 20 0 14 4 24 9 21 5 -3 11 3 14 14 4 14 11 18 24 14 10 -3 14 -2 8 3
-5 4 -16 15 -23 25 -11 14 -9 16 17 14 16 -1 29 1 28 5 -1 4 7 15 18 23 13 11
14 14 4 11 -9 -3 -21 1 -28 9 -10 12 -7 14 18 12 30 -2 30 -2 13 18 -9 11 -11
16 -4 12 8 -5 16 1 21 16 6 14 10 17 11 8 1 -9 5 -6 11 8 6 15 13 21 21 16 9
-6 9 -3 -1 9 -10 13 -10 17 -1 17 9 0 9 4 -1 17 -13 15 -12 15 11 3 24 -13 24
-12 10 5 -12 15 -12 17 -1 10 11 -6 13 -4 8 7 -3 9 3 24 14 34 15 13 16 20 7
31 -9 11 -8 13 2 11 8 -2 14 2 15 9 0 6 3 14 7 18 8 9 5 -16 -5 -32 -4 -6 -3
-15 3 -18 6 -4 9 -1 8 7 -2 7 2 12 9 11 8 -2 9 6 3 27 -6 19 -5 32 2 36 7 4 8
2 4 -4 -4 -7 -1 -12 8 -12 9 0 13 6 10 14 -7 18 33 59 48 50 7 -4 8 -3 4 5 -4
6 -11 9 -16 6 -5 -3 -12 0 -16 6 -4 7 -3 9 2 6 6 -3 16 -2 24 3 12 7 13 13 3
28 -9 15 -8 19 3 19 7 0 11 -4 8 -9 -3 -4 0 -8 6 -8 6 0 8 -5 4 -12 -4 -7 -3
-8 5 -4 6 4 9 11 6 16 -3 5 -3 21 1 35 5 20 9 23 15 13 6 -9 9 -6 10 12 3 45
4 49 13 57 5 4 6 3 2 -4 -4 -7 -2 -13 4 -13 6 0 8 -4 5 -10 -3 -5 -2 -10 3
-10 6 0 9 14 8 31 0 21 4 33 14 36 9 3 11 1 5 -4 -5 -4 -11 -15 -13 -23 -3
-11 0 -12 8 -4 6 6 13 20 15 30 1 11 8 18 14 16 9 -2 9 3 1 18 -9 16 -8 20 6
20 11 0 14 5 10 16 -5 12 -2 15 10 10 15 -6 15 -4 3 11 -9 11 -10 14 -1 9 7
-4 12 -2 12 7 0 8 10 22 23 31 20 14 20 15 2 10 -11 -3 -7 2 9 12 29 16 29 17
10 31 -18 15 -18 15 3 9 12 -4 24 -2 29 5 4 8 3 9 -4 5 -7 -4 -12 -1 -12 9 0
9 7 15 16 13 10 -2 19 3 21 10 3 6 -1 12 -9 12 -7 0 -2 6 12 13 18 9 25 20 24
40 -1 21 2 25 11 17 10 -8 15 -8 21 1 4 7 3 9 -3 6 -11 -7 -28 22 -18 31 3 3
5 0 5 -6 0 -7 5 -12 11 -12 8 0 9 11 5 33 -4 21 -3 27 3 18 10 -16 45 -25 35
-10 -3 5 -11 7 -17 3 -7 -3 -4 1 6 9 9 8 17 18 17 22 0 4 -8 4 -17 1 -16 -5
-16 -5 0 8 15 12 17 18 7 38 -11 22 -10 22 4 4 9 -11 16 -16 16 -12 0 5 7 3
15 -4 13 -11 14 -10 10 3 -4 8 -2 18 3 21 5 3 8 17 6 31 -2 22 0 24 12 14 12
-10 13 -9 8 6 -6 14 -4 16 7 10 8 -4 11 -5 7 0 -4 4 0 14 10 22 9 8 11 12 5 8
-20 -10 -15 14 7 42 11 14 20 22 20 18 0 -5 -8 -17 -17 -27 -14 -16 -14 -18
-1 -13 8 3 20 17 27 31 13 30 14 37 2 29 -11 -6 -6 34 5 44 4 3 4 -2 1 -12 -4
-11 -3 -17 4 -15 6 2 10 7 9 12 -1 4 7 14 17 23 10 8 12 11 4 7 -10 -5 -12 -3
-7 5 5 7 14 10 22 7 7 -3 16 0 20 6 4 7 3 8 -4 4 -7 -4 -12 -1 -12 8 0 9 6 16
13 16 7 0 14 8 15 18 4 36 8 52 17 59 4 4 5 2 1 -4 -5 -9 -2 -11 10 -6 15 5
15 7 0 15 -9 5 -21 6 -28 2 -7 -4 -8 -3 -4 5 4 6 18 9 31 7 14 -3 28 0 31 6 4
6 3 8 -2 5 -6 -3 -15 3 -22 13 -7 13 -8 21 -2 25 6 4 9 1 8 -5 -2 -7 4 -14 13
-15 12 -2 15 3 12 19 -3 15 -2 17 5 8 7 -11 10 -11 15 3 4 9 3 13 -3 10 -15
-9 -12 4 4 21 8 8 20 14 27 14 7 0 4 6 -7 15 -19 14 -18 14 3 10 15 -2 23 3
26 17 4 13 10 17 18 12 8 -5 10 -3 5 5 -6 9 -13 8 -29 -6 l-22 -18 21 25 c12
14 20 33 19 42 -2 10 0 17 3 17 33 -5 44 24 20 51 -11 12 -10 12 5 1 11 -9 17
-10 17 -2 0 6 5 11 12 11 9 0 9 -3 0 -12 -7 -7 -12 -16 -12 -21 0 -5 7 -1 16
8 12 12 13 19 5 29 -8 9 -8 16 -2 20 6 4 8 14 5 24 -4 10 -2 13 3 7 15 -18 33
-16 26 3 -3 9 -3 14 2 10 4 -4 16 3 25 15 17 20 17 23 2 40 -13 15 -14 18 -2
15 8 -2 14 3 12 10 -1 6 3 12 9 12 6 0 8 -9 4 -21 -6 -19 -5 -20 7 -8 8 7 14
27 13 45 -1 30 1 31 20 22 19 -10 19 -10 5 7 -14 17 -13 18 2 12 10 -3 17 -3
16 1 -4 18 15 62 27 62 7 0 19 8 26 17 11 15 11 16 -1 6 -19 -17 -27 -16 -27
2 0 8 2 13 4 11 13 -13 93 92 85 113 -3 8 0 11 6 7 6 -3 13 -2 16 3 4 5 1 13
-5 17 -8 5 -9 3 -4 -6 6 -9 4 -11 -4 -6 -9 6 -9 12 3 25 9 10 13 21 9 26 -5 4
-2 5 5 1 11 -6 11 -11 0 -24 -11 -15 3 -6 42 27 3 2 -3 2 -12 -2 -9 -3 -19 0
-21 7 -3 8 1 13 10 12 9 0 18 6 20 14 4 13 3 13 -6 0 -6 -8 -11 -10 -11 -4 0
19 13 24 29 12 9 -7 13 -8 9 -4 -4 5 -3 15 4 23 8 11 7 12 -6 7 -9 -3 -16 -1
-16 5 0 6 7 11 16 11 10 0 14 6 11 14 -4 10 -1 13 7 10 7 -3 16 2 20 11 3 9 2
14 -2 11 -5 -3 -9 1 -9 9 0 11 5 11 19 4 18 -10 18 -9 8 12 -11 19 -10 21 4
16 8 -3 18 -2 21 3 4 6 1 10 -6 10 -7 0 -9 3 -5 8 4 4 13 7 19 7 15 0 17 25 4
43 -13 17 -2 15 17 -3 13 -14 15 -13 13 4 0 11 -5 17 -9 15 -4 -3 -5 2 -2 10
7 17 20 21 27 9 2 -5 2 -2 1 5 -2 7 3 15 11 18 9 4 13 16 10 35 -2 17 0 27 6
23 18 -11 40 16 29 36 -11 21 -4 29 24 24 13 -2 15 1 8 8 -14 14 6 58 27 58
14 0 14 2 1 11 -12 9 -11 10 7 6 20 -4 21 -3 12 15 -8 16 -8 19 1 13 9 -5 10
-1 5 15 -5 17 -4 21 6 15 8 -6 11 -4 7 7 -5 11 0 14 18 12 13 -1 22 2 18 7 -3
5 -9 7 -13 5 -3 -3 -7 4 -7 14 0 12 7 17 21 15 14 -1 21 4 22 16 1 12 -3 16
-15 13 -15 -5 -15 -4 1 6 10 6 14 16 10 23 -5 9 -2 8 9 0 8 -7 18 -10 21 -6 4
3 -1 12 -11 20 -12 9 -13 12 -2 8 8 -3 21 -1 29 4 11 7 11 13 0 32 -11 22 -11
23 4 10 14 -11 18 -11 23 4 4 10 1 21 -7 26 -10 6 -7 9 11 9 20 0 22 2 10 11
-12 9 -10 10 8 6 19 -4 21 -3 12 8 -9 10 -7 20 5 39 10 14 21 26 26 26 5 0 14
12 19 26 6 16 14 23 22 18 7 -4 5 2 -5 13 -17 20 -17 20 8 18 14 -2 28 2 32 7
3 6 2 8 -3 5 -6 -3 -16 -2 -24 4 -11 6 -12 9 -2 9 7 0 11 4 7 9 -3 5 -1 12 5
16 6 4 8 11 4 16 -3 5 -2 9 3 8 20 -3 34 2 28 11 -3 6 -1 10 4 10 6 0 11 -5
11 -12 0 -6 3 -9 6 -5 3 3 2 12 -2 19 -13 20 -14 39 -1 31 6 -4 8 0 4 10 -3 9
-3 16 1 16 21 -3 32 3 32 17 0 14 -2 15 -17 3 -16 -13 -17 -12 -4 4 13 17 15
17 35 0 12 -10 15 -11 9 -3 -16 17 -17 40 -2 40 5 0 7 -6 3 -12 -4 -8 -3 -10
2 -5 5 5 9 21 10 35 0 26 23 79 24 56 0 -5 -5 -15 -12 -22 -9 -9 -9 -12 1 -12
7 0 15 9 18 20 3 11 9 18 13 15 4 -2 7 5 6 18 -1 15 4 22 16 21 10 -1 15 3 11
9 -4 6 0 8 10 4 9 -3 19 -2 22 4 4 5 1 8 -5 7 -7 -2 -14 5 -15 15 -3 15 -1 16
11 6 14 -11 15 -10 18 14 0 6 11 12 23 12 12 0 25 4 30 9 5 5 3 6 -4 2 -9 -5
-11 -2 -6 9 4 12 8 13 13 5 4 -6 10 -11 14 -11 20 3 26 0 20 -10 -5 -8 -9 -8
-14 1 -5 8 -9 8 -13 -3 -4 -11 0 -15 14 -12 10 2 24 7 30 11 9 5 10 -1 5 -21
l-7 -29 20 25 c16 19 20 20 14 5 -5 -14 -3 -17 7 -11 9 5 11 4 6 -4 -4 -6 -13
-9 -19 -5 -7 3 -3 -2 7 -10 17 -14 17 -16 4 -16 -10 0 -16 -8 -15 -19 1 -11 6
-17 14 -14 10 4 11 0 4 -18 -5 -13 -15 -23 -22 -21 -9 2 -10 0 -1 -11 7 -8 9
-17 5 -21 -4 -4 1 -4 12 -1 15 4 15 3 -2 -6 -13 -7 -23 -18 -23 -26 0 -8 5
-11 12 -7 7 5 8 3 4 -5 -5 -7 -15 -10 -23 -6 -13 4 -13 3 -4 -9 9 -11 9 -15
-1 -19 -10 -4 -10 -6 0 -6 6 -1 12 -6 12 -12 0 -5 -4 -7 -10 -4 -5 3 -10 -1
-10 -10 0 -9 5 -13 10 -10 6 3 10 2 10 -3 0 -6 -7 -13 -16 -16 -8 -3 -12 -2
-9 3 3 5 0 13 -7 17 -7 4 -10 4 -6 -1 4 -4 3 -14 -3 -21 -7 -8 -6 -14 2 -20 8
-5 9 -3 4 6 -6 9 -4 11 5 5 10 -6 10 -10 -2 -19 -11 -8 -13 -18 -7 -36 8 -23
8 -24 -5 -6 -14 17 -15 17 -14 -5 1 -13 6 -30 12 -38 9 -12 7 -12 -12 -2 -13
7 -26 10 -30 7 -3 -3 -1 -6 4 -6 5 0 10 -9 11 -20 1 -11 -1 -19 -5 -19 -21 3
-23 -3 -7 -21 16 -18 16 -20 1 -26 -9 -3 -16 -12 -16 -20 0 -7 -6 -11 -14 -8
-8 3 -17 1 -21 -5 -3 -7 0 -8 9 -5 9 3 16 1 16 -5 0 -7 -7 -14 -15 -17 -14 -6
-13 -8 2 -20 10 -7 14 -14 8 -14 -5 0 -3 -5 5 -11 12 -8 11 -9 -5 -5 -27 7
-54 -8 -30 -17 10 -5 14 -3 9 5 -5 7 -3 8 5 3 9 -5 9 -11 3 -17 -6 -6 -8 -16
-6 -23 3 -7 1 -16 -4 -19 -5 -3 -8 6 -6 20 3 31 -8 23 -13 -9 -2 -12 -11 -28
-20 -35 -9 -6 -12 -12 -6 -12 6 0 13 -9 16 -19 3 -15 1 -18 -11 -14 -9 4 -13
2 -9 -4 4 -6 1 -14 -5 -17 -7 -3 -2 -3 12 0 18 4 21 3 11 -5 -12 -8 -12 -12
-2 -25 11 -13 9 -14 -14 -10 -16 3 -24 1 -20 -5 3 -6 0 -20 -7 -31 -11 -17
-11 -22 2 -30 13 -8 12 -10 -2 -10 -10 0 -18 -7 -18 -16 0 -9 -5 -12 -12 -8
-9 5 -9 2 1 -9 12 -15 11 -17 -5 -18 -11 0 -14 -3 -6 -6 19 -7 14 -26 -5 -19
-17 6 -17 5 -1 -7 17 -13 16 -15 -5 -25 -22 -11 -22 -11 3 -8 14 2 19 1 13 -1
-16 -5 -17 -23 -3 -23 6 0 5 -6 -2 -14 -7 -8 -17 -12 -22 -9 -4 3 -3 9 4 13 8
5 8 10 2 14 -17 10 -21 -20 -7 -47 13 -25 13 -26 -13 -17 l-27 10 23 -16 c12
-9 22 -22 22 -28 0 -7 -3 -6 -8 2 -5 7 -16 10 -25 6 -13 -4 -14 -9 -4 -19 7
-7 16 -10 21 -7 5 3 6 0 2 -7 -4 -6 -11 -9 -16 -6 -4 3 -13 -2 -20 -10 -11
-13 -10 -14 6 -9 16 6 17 5 7 -7 -7 -7 -13 -21 -13 -32 0 -10 -4 -16 -8 -13
-5 3 -9 -1 -9 -9 0 -8 8 -12 20 -9 11 2 16 0 13 -4 -4 -4 -12 -8 -17 -8 -5 -1
-13 -2 -19 -3 -5 0 -6 -8 -3 -18 4 -9 2 -14 -3 -10 -6 3 -11 -4 -11 -16 -2
-17 0 -18 7 -7 7 11 9 10 7 -7 0 -12 -5 -19 -9 -17 -4 3 -8 -4 -8 -16 0 -12
-4 -19 -9 -16 -5 3 -12 -1 -15 -10 -9 -23 -7 -31 4 -14 5 8 12 11 15 8 4 -4
-3 -15 -14 -25 -23 -19 -27 -33 -10 -33 5 0 8 4 5 8 -2 4 4 8 15 8 14 0 16 -3
7 -11 -7 -5 -18 -17 -26 -25 -10 -11 -12 -11 -6 -1 5 10 3 12 -5 7 -9 -6 -9
-11 -1 -21 13 -16 -3 -30 -22 -20 -7 4 -4 -1 6 -9 11 -9 15 -16 9 -16 -7 0
-13 -12 -15 -27 -2 -16 -8 -27 -15 -26 -7 2 -10 -4 -6 -12 4 -12 9 -13 18 -5
10 8 15 8 21 -1 4 -7 3 -9 -4 -5 -6 3 -14 2 -17 -4 -5 -8 -11 -8 -19 -1 -9 8
-13 7 -13 -4 0 -8 4 -12 8 -10 3 3 9 -4 12 -16 5 -17 3 -18 -10 -7 -15 12 -15
11 -4 -11 10 -17 10 -26 1 -35 -8 -8 -10 -7 -5 5 4 10 2 20 -4 24 -7 4 -8 0
-4 -11 4 -10 2 -15 -4 -11 -11 7 -11 -29 1 -40 4 -4 12 -1 17 7 9 13 10 13 6
0 -2 -8 -10 -15 -18 -15 -32 -1 -39 -15 -21 -43 9 -14 12 -23 5 -19 -7 4 -15
-5 -22 -25 -13 -38 -14 -41 -2 -33 5 3 13 0 17 -6 5 -8 3 -9 -6 -4 -10 6 -12
4 -6 -11 6 -15 5 -17 -5 -6 -15 14 -33 16 -25 3 4 -5 1 -11 -6 -13 -7 -3 -5
-7 6 -11 11 -5 15 -3 10 5 -5 7 -3 8 6 3 10 -6 10 -10 -2 -19 -8 -6 -13 -17
-10 -25 3 -10 0 -11 -9 -5 -12 6 -12 5 -1 -8 10 -13 10 -18 1 -24 -7 -4 -9 -3
-6 3 3 5 0 10 -8 10 -11 0 -11 -4 0 -21 10 -15 11 -25 4 -36 -9 -12 -10 -12
-5 3 3 11 2 16 -4 12 -15 -9 -13 -48 3 -39 6 4 2 -3 -10 -15 -13 -12 -23 -26
-23 -32 0 -6 -6 -7 -12 -4 -7 4 -2 -3 11 -14 21 -19 21 -21 5 -21 -18 -1 -18
-1 -1 -14 16 -12 16 -14 2 -20 -11 -4 -14 -2 -9 7 5 9 4 9 -6 0 -11 -10 -11
-15 1 -29 12 -15 12 -16 0 -9 -11 6 -13 1 -9 -23 4 -25 2 -29 -9 -21 -10 9
-13 7 -14 -7 -2 -30 2 -49 13 -55 5 -3 2 -9 -7 -12 -10 -5 -14 -3 -9 5 4 7 3
8 -5 4 -9 -6 -9 -11 1 -24 10 -12 10 -14 1 -8 -16 9 -16 1 -3 -24 8 -16 8 -18
-5 -14 -8 4 -15 11 -15 17 0 6 -3 7 -6 4 -4 -4 -1 -13 6 -22 8 -10 9 -15 1
-15 -6 0 -11 -5 -11 -11 0 -5 5 -7 10 -4 6 3 10 1 10 -5 0 -6 5 -8 12 -4 7 4
8 3 4 -4 -4 -6 -14 -8 -23 -5 -13 5 -15 2 -10 -11 4 -10 7 -20 7 -22 0 -3 6
-2 13 2 7 4 8 3 4 -2 -5 -5 -16 -9 -25 -9 -9 0 -17 -7 -17 -16 0 -9 -5 -23
-11 -30 -8 -12 -12 -53 -4 -61 7 -9 7 -39 0 -43 -5 -3 -7 -12 -4 -19 3 -8 1
-17 -5 -21 -7 -3 -8 0 -5 9 3 9 1 16 -4 16 -6 0 -9 -14 -7 -30 2 -17 0 -28 -5
-25 -5 3 -11 1 -14 -4 -4 -5 -1 -13 5 -17 8 -5 9 -3 4 6 -5 8 -4 11 3 6 14 -8
4 -36 -11 -32 -7 1 -9 1 -4 -1 4 -3 4 -10 1 -15 -4 -7 -2 -8 4 -4 7 4 12 2 12
-3 0 -6 -4 -11 -10 -11 -5 0 -10 -5 -10 -11 0 -6 7 -8 16 -5 9 3 12 2 9 -4 -4
-6 -14 -9 -23 -8 -19 3 -23 -23 -10 -59 4 -14 3 -25 -4 -29 -6 -4 -8 -3 -5 3
3 5 0 10 -7 10 -7 0 -13 -6 -13 -13 0 -7 4 -11 9 -8 4 3 8 0 8 -6 0 -6 5 -8
12 -4 7 4 8 3 4 -4 -4 -7 -14 -12 -22 -12 -8 0 -13 -4 -9 -10 3 -5 13 -6 23
-3 15 5 15 4 -1 -8 -17 -13 -24 -33 -26 -67 -1 -7 -5 -10 -11 -7 -5 3 -10 1
-10 -4 0 -6 5 -11 11 -11 5 0 7 -5 4 -10 -4 -6 -10 -8 -14 -6 -3 3 -7 -4 -7
-14 0 -10 4 -16 8 -14 4 3 8 -2 8 -11 0 -12 -5 -15 -16 -11 -9 3 -18 6 -20 6
-3 0 -3 4 1 9 3 5 1 12 -4 15 -5 4 -8 -2 -7 -11 2 -9 8 -19 14 -21 7 -2 9 -8
6 -14 -4 -6 2 -8 17 -4 l24 6 -22 -11 c-13 -7 -23 -16 -23 -21 0 -5 4 -7 9 -3
5 3 13 1 16 -5 4 -6 3 -10 -2 -9 -22 4 -43 -2 -43 -12 0 -6 7 -9 15 -6 8 4 17
1 21 -5 5 -7 2 -8 -6 -3 -10 6 -12 4 -7 -8 3 -9 1 -19 -5 -23 -7 -4 -8 -3 -4
4 4 7 2 12 -3 12 -17 0 -13 -21 7 -37 9 -8 11 -11 3 -7 -10 5 -13 3 -8 -8 6
-16 -10 -38 -28 -38 -5 0 -3 5 5 10 9 6 10 10 3 10 -25 0 -22 -20 4 -35 27
-15 27 -15 3 -9 -22 6 -23 5 -11 -10 12 -14 12 -16 -4 -10 -12 5 -16 4 -12 -3
4 -6 1 -14 -5 -17 -7 -3 -2 -3 12 0 l25 7 -25 -22 -25 -22 25 6 c17 4 21 3 12
-3 -8 -5 -13 -12 -13 -16 1 -3 0 -8 0 -11 -1 -3 -2 -9 -3 -15 -1 -12 -15 -14
-24 -4 -4 4 -2 4 5 1 16 -10 10 20 -7 36 -12 10 -12 9 -2 -4 6 -9 9 -19 5 -23
-20 -19 -9 -41 18 -38 4 1 4 -9 1 -21 -5 -18 -7 -19 -10 -4 -4 20 -17 22 -28
5 -5 -7 -2 -9 7 -4 8 4 5 0 -6 -10 -16 -13 -17 -16 -3 -11 10 3 20 2 23 -3 4
-6 -1 -10 -9 -10 -8 0 -18 -5 -22 -12 -4 -7 -3 -8 5 -4 8 6 10 0 6 -21 -3 -15
-2 -22 1 -15 3 6 10 12 14 12 5 0 1 -15 -10 -33 -11 -18 -18 -43 -15 -55 2
-13 0 -20 -5 -17 -9 6 -7 40 5 68 4 9 3 17 -2 17 -5 0 -10 -6 -11 -12 -5 -39
-9 -55 -15 -65 -4 -7 0 -16 10 -22 12 -7 13 -10 4 -11 -8 0 -11 -6 -7 -16 5
-12 1 -14 -17 -10 -12 3 -17 3 -10 0 14 -6 7 -55 -10 -67 -8 -6 -6 -7 6 -3 9
3 17 1 17 -4 0 -6 -4 -10 -9 -10 -5 0 -12 -7 -15 -16 -3 -8 -2 -12 4 -9 6 3
10 -1 10 -10 0 -10 -5 -13 -12 -9 -7 5 -8 3 -2 -7 14 -22 15 -47 2 -55 -7 -4
-8 -3 -4 4 4 8 2 10 -8 6 -9 -4 -13 -16 -11 -35 2 -16 0 -27 -5 -24 -4 3 -6
-5 -2 -17 3 -12 1 -19 -5 -15 -5 3 -10 0 -10 -8 0 -8 3 -12 7 -10 4 2 12 -8
19 -23 11 -25 10 -26 -4 -8 -8 11 -15 16 -15 10 0 -5 -7 0 -15 10 -8 11 -15
15 -15 9 0 -7 5 -15 10 -18 6 -4 7 -12 3 -18 -12 -20 -12 -38 0 -30 9 5 9 3 1
-8 -6 -8 -14 -27 -18 -44 -4 -16 -12 -33 -18 -36 -6 -4 -3 -13 7 -23 15 -14
15 -16 1 -16 -9 0 -16 5 -16 12 0 6 -3 8 -7 5 -3 -4 2 -17 13 -29 10 -12 14
-18 7 -15 -7 4 -15 -5 -22 -23 -5 -17 -6 -28 -1 -25 5 3 12 0 16 -6 4 -8 3 -9
-4 -5 -7 4 -13 2 -13 -3 -1 -6 -2 -15 -3 -21 0 -5 -10 -16 -21 -25 -11 -9 -15
-14 -9 -11 7 3 14 0 17 -8 4 -10 -2 -13 -21 -11 -24 2 -25 2 -8 -11 11 -7 24
-11 30 -8 6 3 0 -4 -13 -15 -15 -13 -21 -27 -17 -37 5 -14 4 -15 -9 -4 -19 16
-20 6 0 -14 13 -13 13 -15 -5 -21 -18 -6 -19 -8 -6 -27 10 -14 12 -27 6 -38
-5 -10 -7 -20 -4 -23 3 -3 -4 -10 -15 -17 -12 -6 -19 -15 -16 -20 3 -4 0 -11
-5 -13 -6 -3 -5 -4 2 -2 7 1 12 7 11 12 -1 5 5 10 12 10 11 0 12 -4 4 -13 -6
-7 -8 -18 -4 -24 4 -6 1 -9 -5 -8 -7 2 -14 -5 -15 -15 -2 -9 1 -17 6 -17 6 0
6 -8 -1 -19 -13 -26 -13 -34 3 -25 6 4 4 -2 -7 -14 -18 -21 -18 -21 4 -17 18
3 20 2 10 -10 -7 -8 -17 -12 -24 -9 -6 3 -4 0 5 -8 9 -7 15 -21 13 -30 -1 -10
3 -18 9 -18 7 0 5 -5 -3 -10 -13 -8 -13 -10 1 -10 9 0 23 -8 30 -17 10 -11 10
-14 2 -9 -8 4 -13 1 -13 -8 0 -9 6 -16 13 -16 9 0 8 -3 -2 -9 -11 -7 -10 -10
6 -15 20 -6 29 -46 11 -46 -6 0 -8 -3 -5 -6 4 -4 14 -1 24 7 9 8 14 9 10 3 -4
-7 0 -17 8 -24 16 -13 21 -45 7 -36 -5 3 -9 -1 -9 -9 0 -11 4 -12 14 -4 11 10
16 6 15 -11 0 -3 8 -6 18 -6 12 0 17 6 15 18 -2 10 0 20 4 23 5 2 8 -3 8 -13
0 -32 3 -39 18 -39 12 0 12 3 2 16 -10 12 -9 13 3 6 8 -5 22 -10 30 -10 8 0
15 -4 15 -10 1 -5 6 -20 13 -33 11 -19 16 -21 35 -10 20 10 21 10 8 -5 -15
-19 -1 -23 16 -6 9 9 10 6 6 -12 -6 -23 -6 -23 11 -6 21 21 33 23 16 2 -10
-12 -9 -15 4 -15 10 0 14 -5 11 -10 -3 -6 -2 -10 4 -10 5 0 12 4 16 10 9 15
35 0 35 -20 0 -23 16 -34 26 -19 4 8 12 4 21 -12 l14 -24 -6 25 -6 25 16 -27
c11 -21 21 -26 40 -22 27 5 32 -4 13 -26 -11 -12 -10 -12 4 -2 9 7 18 9 20 5
3 -4 4 -3 2 2 -1 6 7 11 17 11 12 0 15 -4 8 -12 -6 -8 -4 -14 6 -18 9 -3 14
-2 11 2 -2 4 5 8 17 9 12 0 16 -1 10 -4 -7 -3 -13 -9 -13 -14 0 -5 10 -5 23 0
16 6 29 4 42 -6 17 -14 18 -15 2 -9 -10 3 -16 2 -13 -3 3 -5 17 -8 32 -8 14 0
31 -7 36 -14 8 -11 9 -11 5 2 -4 13 -1 15 14 12 17 -5 23 -15 20 -36 0 -4 4
-7 10 -7 6 0 9 6 6 13 -3 8 1 14 8 14 7 0 11 -6 8 -13 -7 -18 17 -28 30 -14
10 10 8 11 -8 6 -15 -6 -17 -4 -8 5 15 15 34 3 26 -17 -5 -14 -3 -15 16 -4
l22 11 -17 -28 -18 -28 22 19 c13 11 23 14 23 8 3 -27 4 -31 13 -39 5 -4 6 -3
3 4 -4 6 -2 13 5 15 16 6 48 -23 41 -36 -4 -6 1 -4 11 4 21 16 49 23 40 9 -3
-5 -10 -7 -15 -4 -5 3 -6 -1 -3 -10 5 -12 9 -13 20 -4 8 6 14 8 14 4 0 -4 6
-2 14 4 11 10 14 9 12 -3 -1 -9 -6 -19 -11 -23 -4 -4 -5 -3 -2 3 3 6 0 11 -8
11 -11 0 -12 -4 -4 -13 14 -17 32 -14 41 6 5 12 7 12 7 -2 1 -10 6 -18 12 -18
5 0 7 5 4 10 -10 16 1 11 16 -7 8 -10 9 -14 2 -10 -6 4 -14 3 -18 -2 -3 -6 6
-8 21 -5 21 4 25 2 18 -8 -5 -8 -1 -5 10 7 l19 20 -8 -25 c-7 -23 -7 -24 10
-10 11 9 16 10 11 3 -4 -8 -2 -13 8 -13 8 0 17 -9 21 -20 5 -16 9 -17 20 -7 7
6 11 16 8 20 -3 5 4 3 15 -4 12 -7 19 -16 16 -20 -6 -10 26 -20 39 -12 7 4 8
0 4 -11 -4 -10 -3 -15 3 -11 6 3 10 2 10 -4 0 -5 18 -9 39 -8 29 2 37 -1 30
-9 -11 -13 16 -28 32 -18 5 3 12 -2 15 -11 5 -12 10 -13 20 -4 10 9 15 8 19
-3 3 -7 14 -14 25 -15 11 -1 28 -10 38 -19 16 -16 17 -16 20 -1 2 10 8 15 13
11 5 -3 6 -10 3 -16 -5 -7 -1 -9 9 -5 9 3 18 1 21 -6 3 -9 8 -8 16 3 9 12 10
11 5 -6 -4 -15 0 -24 10 -28 9 -3 14 -2 11 3 -3 5 4 11 16 14 16 4 18 3 9 -6
-14 -14 -14 -27 0 -27 5 0 7 5 4 10 -3 6 1 10 9 10 8 0 18 -5 22 -12 5 -7 3
-8 -6 -3 -9 6 -11 4 -5 -5 6 -10 13 -7 27 11 18 22 18 22 9 2 -15 -30 -14 -38
4 -23 19 16 45 -3 46 -34 0 -20 1 -21 9 -1 5 11 9 14 9 8 1 -7 6 -13 12 -13 5
0 7 4 4 10 -3 6 1 7 9 4 9 -3 14 -10 11 -14 -3 -5 0 -12 6 -16 8 -4 9 -3 5 4
-4 7 -2 12 3 12 6 0 11 -8 12 -17 0 -15 2 -15 9 2 7 17 9 17 9 3 1 -21 12 -23
30 -5 11 10 13 9 8 -5 -4 -12 -1 -16 14 -13 11 2 17 0 14 -6 -4 -5 -1 -9 5 -9
6 0 9 -3 7 -8 -3 -4 5 -7 18 -7 13 0 21 3 19 7 -7 11 23 3 40 -11 9 -7 13 -17
10 -22 -3 -5 -2 -9 3 -8 4 1 10 0 13 -1 18 -7 39 -7 35 0 -3 4 2 10 10 13 10
4 12 1 8 -10 -5 -12 -2 -15 8 -11 16 6 41 -16 31 -28 -4 -5 1 -2 11 5 14 11
17 11 17 -2 0 -10 8 -15 20 -14 11 1 20 5 20 10 0 5 -6 7 -13 4 -8 -3 -14 1
-14 8 0 11 5 12 21 2 12 -6 25 -10 30 -9 5 2 3 -5 -5 -14 -8 -10 -9 -15 -2
-11 6 4 14 1 16 -5 4 -8 6 -7 6 3 1 9 8 20 17 23 14 6 15 4 4 -10 -12 -13 -11
-17 0 -24 9 -5 20 -4 29 3 12 10 13 9 7 -2 -6 -9 -5 -12 5 -9 8 3 22 -4 31
-15 15 -17 20 -18 35 -6 11 9 14 10 9 1 -9 -15 6 -16 20 -2 8 8 15 6 25 -6 9
-12 10 -15 2 -10 -8 4 -13 2 -13 -4 0 -7 6 -10 13 -7 6 2 20 0 29 -4 12 -7 20
-4 26 7 8 15 10 15 15 0 4 -10 3 -15 -1 -12 -5 3 -9 -1 -9 -8 0 -8 8 -11 19
-8 10 2 18 -1 18 -9 0 -7 3 -9 6 -6 4 4 1 14 -7 23 -13 16 -12 16 11 3 31 -17
41 -30 33 -43 -3 -5 -1 -6 5 -2 7 4 12 14 12 22 0 8 4 14 9 14 6 0 8 -10 6
-21 -4 -21 -4 -21 17 -3 12 11 18 13 14 6 -5 -8 2 -16 19 -22 16 -6 23 -14 19
-22 -4 -7 -3 -8 5 -4 6 4 9 12 6 17 -4 5 -1 9 4 9 6 0 11 -4 11 -10 0 -5 7
-10 15 -10 8 0 15 -5 15 -12 0 -6 3 -8 7 -5 3 4 -4 19 -18 34 -17 20 -18 23
-3 10 11 -9 24 -14 28 -10 4 5 6 1 4 -7 -2 -9 3 -14 12 -12 11 3 10 -2 -4 -17
-18 -20 -18 -20 7 -8 14 6 23 16 20 21 -4 5 -1 6 5 2 6 -4 8 -14 5 -24 -3 -9
-3 -14 2 -10 4 4 16 3 26 -2 21 -12 51 -2 42 14 -3 6 3 3 14 -7 11 -9 24 -14
28 -10 5 5 3 0 -4 -10 -8 -9 -11 -20 -7 -24 3 -3 6 -1 6 5 0 7 7 12 16 12 9 0
12 5 8 13 -4 6 2 4 14 -7 12 -10 19 -23 16 -28 -4 -5 9 -2 27 8 33 17 34 17
19 -1 -9 -11 -10 -16 -2 -11 7 4 12 2 12 -6 0 -9 3 -9 10 2 5 8 10 10 10 4 0
-19 40 -25 40 -6 1 15 2 15 11 -1 6 -9 14 -15 20 -12 5 4 9 2 9 -3 0 -13 52
-35 59 -25 11 15 34 14 28 -1 -4 -10 -1 -13 9 -9 7 3 14 10 14 16 0 5 11 -3
25 -19 14 -16 25 -25 25 -20 0 5 7 3 15 -4 13 -10 19 -10 34 4 17 15 19 15 32
-1 12 -15 12 -16 -1 -8 -13 7 -13 6 -2 -7 7 -9 21 -15 30 -13 9 2 19 4 21 4 3
1 -4 8 -15 17 -18 14 -18 15 4 4 17 -8 21 -17 17 -33 -5 -16 -4 -18 3 -8 9 12
14 12 39 -3 l28 -17 -30 26 c-24 21 -25 24 -7 15 13 -6 33 -13 44 -15 12 -3
24 -8 27 -13 11 -16 39 -20 51 -9 10 9 11 9 5 -2 -6 -10 -2 -11 15 -6 15 5 20
4 16 -4 -5 -7 -1 -9 8 -5 9 3 13 10 10 16 -3 5 3 4 15 -4 12 -7 21 -18 21 -25
0 -6 5 -15 12 -19 6 -4 8 -3 5 3 -4 6 0 14 9 17 8 3 13 2 10 -2 -3 -5 12 -8
32 -7 23 1 42 -5 50 -14 8 -9 11 -10 7 -3 -4 8 1 11 16 9 13 -2 26 -12 30 -23
7 -17 8 -17 8 4 1 12 6 22 12 22 5 0 7 -4 4 -10 -12 -19 5 -30 31 -20 17 7 23
7 19 0 -3 -6 -1 -10 4 -10 6 0 11 8 11 18 1 15 2 15 12 -3 11 -19 11 -19 19 0
7 18 8 17 8 -5 1 -18 4 -21 10 -11 7 11 10 9 16 -8 6 -21 7 -21 20 -4 7 10 17
15 21 11 4 -4 14 -2 22 5 13 9 14 9 8 0 -4 -8 -1 -13 8 -13 9 0 16 5 16 11 0
8 4 8 14 0 11 -9 15 -9 20 1 3 7 3 2 -1 -12 -5 -22 -4 -23 11 -11 9 7 16 9 16
4 0 -8 33 -10 59 -4 3 1 -4 8 -15 16 -18 14 -17 15 8 4 15 -7 29 -19 31 -28 4
-12 5 -11 6 4 1 17 3 18 11 5 7 -11 10 -12 10 -2 0 10 4 10 16 -2 8 -9 21 -16
27 -16 7 0 6 4 -3 10 -9 6 -10 10 -3 10 7 0 17 -10 24 -21 9 -17 8 -20 -2 -14
-7 5 -10 4 -5 -3 3 -6 31 -11 61 -11 37 0 53 4 49 11 -5 7 -2 8 7 2 22 -13 36
-13 36 2 0 7 -4 11 -9 8 -4 -3 -5 3 -1 12 5 13 3 15 -7 9 -9 -6 -11 -4 -5 4 5
9 10 10 18 2 15 -15 27 -14 27 4 0 8 5 15 12 15 6 0 8 3 5 6 -4 4 -13 1 -21
-5 -11 -9 -16 -9 -22 0 -4 7 -3 9 3 6 6 -4 14 0 17 9 3 8 9 13 14 10 17 -10 7
40 -10 52 -21 15 -14 36 9 28 8 -3 11 -1 8 4 -3 6 0 10 7 10 8 0 6 5 -5 11 -9
5 -23 7 -30 4 -6 -4 -3 0 7 9 10 8 23 13 27 10 5 -3 6 3 2 12 -5 13 -3 15 8
10 8 -4 6 -1 -4 8 -11 8 -26 12 -35 10 -14 -4 -13 -3 1 6 13 8 15 15 8 24 -8
9 -7 13 4 13 8 0 11 -5 8 -10 -3 -6 -1 -7 6 -3 16 10 -6 39 -23 29 -7 -4 -7
-1 1 7 10 11 15 11 30 -1 17 -13 17 -13 3 5 -14 18 -13 19 5 13 19 -7 19 -6 3
7 -10 7 -18 19 -18 25 0 7 -4 10 -9 6 -5 -3 -12 -2 -15 3 -8 13 28 11 36 -2 4
-6 6 -1 5 12 -1 13 -6 21 -14 18 -7 -3 -15 0 -19 6 -5 7 -2 8 6 3 10 -6 12 -4
6 10 -5 14 -4 15 7 7 10 -8 13 -6 13 9 0 14 -5 17 -20 13 -16 -5 -17 -4 -5 9
8 8 16 13 19 12 3 -2 12 1 20 7 12 8 12 9 -2 4 -10 -3 -18 -1 -18 5 0 6 -6 7
-12 3 -14 -8 20 36 37 48 7 5 6 8 -1 8 -5 0 -15 -5 -22 -12 -9 -9 -12 -9 -12
-1 0 7 5 15 11 19 7 4 9 21 6 40 -4 25 -3 32 6 27 8 -4 8 -1 -1 9 -10 13 -10
18 -1 24 8 5 10 3 4 -7 -5 -8 -4 -10 0 -6 11 9 16 39 6 33 -13 -8 -30 30 -20
45 8 11 9 10 7 -5 -3 -20 27 -32 38 -15 3 5 0 8 -8 7 -7 -2 -12 3 -10 11 2 8
-3 18 -10 23 -9 7 -6 8 10 5 17 -4 21 -2 14 6 -5 7 -12 21 -15 32 -7 19 -7 19
7 1 14 -18 15 -18 13 3 -1 11 -5 21 -9 21 -4 0 -8 5 -8 11 0 5 4 8 8 5 4 -2
14 0 22 5 12 8 11 9 -5 7 -16 -2 -19 3 -19 25 2 44 4 48 14 42 6 -3 7 1 4 10
-5 12 -10 13 -17 6 -6 -6 -16 -11 -21 -11 -6 0 -3 5 7 11 9 6 15 14 12 19 -3
5 -1 11 5 15 15 9 12 27 -2 20 -7 -4 -4 0 6 9 10 8 23 13 27 10 5 -3 9 0 9 5
0 6 -4 11 -10 11 -5 0 -10 7 -10 16 0 8 4 12 10 9 16 -10 -2 28 -19 43 -14 11
-14 12 0 7 19 -7 45 20 29 30 -6 3 -8 10 -5 15 3 5 1 11 -5 15 -6 4 -4 17 5
36 9 16 12 29 7 29 -17 0 -7 39 13 55 20 16 20 16 -4 9 -16 -4 -21 -3 -17 5 4
6 15 11 24 11 15 0 15 2 2 10 -12 7 -12 10 -1 10 7 0 11 6 7 15 -3 8 -1 15 5
15 6 0 6 7 -1 20 -10 18 -7 24 11 22 3 -1 6 6 6 13 0 11 -4 12 -14 3 -7 -6
-16 -8 -20 -4 -3 3 -1 6 6 6 8 0 11 6 7 16 -3 8 -2 13 3 10 5 -4 7 3 4 14 -3
11 -10 17 -16 13 -6 -3 -7 -1 -3 5 4 7 14 12 22 12 8 0 14 5 14 11 0 5 -4 8
-8 5 -4 -2 -13 4 -20 14 -12 19 -1 37 17 26 15 -9 7 38 -9 52 -8 8 -9 11 -2 7
8 -4 11 1 9 17 -2 13 3 29 12 36 9 8 10 11 4 7 -20 -9 -15 9 8 39 13 17 16 26
7 24 -7 -2 -12 4 -10 12 2 8 0 11 -5 7 -4 -5 -8 -18 -8 -30 0 -11 -7 -22 -15
-24 -9 -3 -11 -1 -5 4 6 4 10 15 10 23 -1 8 3 21 8 28 5 6 6 12 2 12 -5 0 -1
8 7 18 16 19 17 30 4 50 -4 7 -3 19 4 27 9 11 9 15 1 15 -6 0 -11 5 -11 11 0
5 5 7 10 4 6 -3 10 1 10 10 0 9 -4 14 -9 11 -10 -7 -9 20 2 30 11 11 8 26 -3
19 -5 -3 -10 -2 -10 4 0 5 6 12 13 14 8 4 8 6 -2 6 -11 1 -10 5 5 16 12 9 13
13 4 10 -11 -4 -16 1 -16 14 0 16 3 18 15 8 12 -10 13 -9 2 11 -11 21 -8 27
13 23 5 -1 4 5 -4 13 -13 17 -25 22 -16 8 3 -5 -1 -9 -9 -9 -8 0 -11 5 -7 11
4 6 7 14 7 18 0 3 4 10 9 15 5 4 6 3 3 -3 -4 -7 0 -15 8 -18 13 -4 14 -2 5 14
-6 11 -8 20 -4 20 3 0 0 8 -7 17 -12 14 -12 16 0 8 11 -6 13 -4 8 9 -4 10 -3
15 3 11 6 -3 10 -1 10 6 0 7 -9 9 -22 6 -22 -6 -22 -5 -4 8 10 8 23 12 29 8 6
-3 7 -1 3 6 -4 6 -11 9 -15 7 -4 -3 -8 1 -8 9 0 8 5 11 10 8 5 -3 7 0 5 8 -3
8 -12 13 -21 11 -8 -1 -18 2 -21 7 -3 5 2 8 12 7 9 0 16 5 14 12 -1 8 2 11 8
7 6 -3 8 -10 6 -14 -3 -4 1 -8 8 -8 14 0 13 5 -13 55 -7 13 -10 27 -7 30 3 3
6 0 6 -7 0 -7 5 -9 12 -5 7 4 8 3 4 -4 -11 -18 0 -14 15 5 8 9 9 14 3 10 -6
-4 -20 3 -30 15 -11 12 -14 19 -9 15 6 -3 17 -2 25 4 10 6 11 9 3 9 -7 0 -13
9 -13 20 0 14 5 18 17 13 15 -6 16 -5 3 9 -8 9 -19 13 -24 10 -5 -3 -6 0 -2 7
5 7 14 10 22 7 9 -3 11 0 7 11 -5 12 -3 14 8 8 11 -7 12 -6 3 6 -6 8 -10 22
-9 32 2 9 -1 15 -6 11 -5 -3 -6 -11 -3 -17 4 -7 3 -9 -1 -4 -14 12 -13 46 1
40 6 -2 15 1 20 8 4 7 3 10 -3 6 -6 -4 -14 0 -17 9 -4 11 -2 15 8 11 11 -4 13
-1 9 10 -5 12 -3 14 7 8 9 -5 11 -4 6 4 -6 9 -11 9 -21 1 -10 -8 -15 -8 -21 2
-4 7 -4 10 1 6 4 -4 14 0 21 10 18 23 18 37 0 23 -11 -9 -16 -9 -22 0 -4 7 -3
10 2 7 5 -3 17 5 28 19 18 25 18 25 -4 13 -12 -6 -24 -9 -28 -6 -3 3 0 6 8 6
10 0 10 4 -1 18 -13 15 -12 16 3 4 11 -9 18 -10 23 -2 3 5 1 10 -5 10 -6 0 -9
4 -5 10 3 5 13 6 22 3 15 -6 16 -5 3 9 -11 11 -17 13 -23 4 -4 -6 -6 -1 -4 11
2 12 7 26 12 30 4 5 5 2 0 -6 -6 -10 -4 -12 4 -7 9 6 8 12 -4 26 -11 12 -13
20 -6 25 6 3 11 21 11 40 0 19 4 37 10 40 6 4 5 13 -2 25 -7 10 -16 16 -22 13
-5 -3 -6 -1 -2 6 4 6 11 9 16 6 5 -3 11 -1 14 4 4 5 1 13 -5 17 -8 4 -9 3 -5
-4 10 -17 1 -15 -14 4 -11 12 -11 15 0 12 7 -2 15 3 18 11 2 8 0 11 -5 8 -15
-10 -8 50 8 69 12 15 11 16 -11 11 -14 -4 -19 -4 -12 -1 10 5 10 9 0 22 -8 10
-9 13 -1 9 6 -4 14 -3 18 3 4 6 10 8 15 5 5 -3 11 -1 15 4 3 6 -3 8 -15 6 -11
-2 -20 0 -20 6 0 5 6 9 13 9 8 0 7 3 -3 9 -8 6 -19 7 -25 3 -5 -3 -4 1 2 10 7
8 9 19 5 23 -4 5 -2 5 5 2 16 -10 46 22 35 37 -5 6 -8 19 -7 29 2 9 -1 17 -6
17 -10 0 -8 -28 4 -46 6 -11 0 -24 -12 -24 -3 0 -6 20 -7 44 0 35 3 43 14 38
10 -3 13 -1 8 6 -4 7 -4 17 0 24 4 7 9 23 10 36 2 20 0 21 -12 11 -8 -6 -17
-9 -21 -5 -3 3 -1 6 5 6 7 0 12 7 12 16 0 9 5 12 13 8 6 -4 9 -4 5 1 -4 4 -2
15 5 23 9 13 9 14 0 8 -8 -4 -13 -2 -13 4 0 6 -5 8 -12 4 -10 -6 -10 -5 -1 8
7 8 9 19 5 23 -4 5 -1 5 6 1 7 -4 9 -13 6 -19 -4 -7 -3 -9 1 -4 11 9 13 57 3
51 -15 -10 -8 15 10 32 16 17 16 17 0 11 -10 -3 -20 -1 -24 5 -5 7 -2 8 6 3 9
-6 12 1 8 27 -3 26 0 34 9 31 7 -3 13 0 13 6 0 6 -8 11 -17 11 -14 0 -15 2 -4
9 11 7 10 10 -4 18 -16 9 -16 11 -1 16 11 5 15 3 10 -5 -4 -7 -3 -8 5 -4 9 6
9 11 0 22 -6 8 -8 14 -4 14 4 0 2 6 -4 14 -8 9 -8 16 -2 20 5 4 14 -2 20 -11
6 -10 11 -13 11 -6 0 6 -7 19 -16 27 -8 9 -11 16 -5 16 6 0 11 4 11 9 0 6 -9
8 -21 6 -16 -3 -18 -1 -10 9 6 7 7 17 3 21 -4 5 -1 5 6 1 7 -4 9 -13 6 -19 -5
-9 -3 -9 6 0 11 10 11 15 -1 29 -8 10 -9 15 -3 11 7 -4 14 -1 16 6 7 16 -2 38
-12 32 -5 -3 -7 3 -6 12 2 9 8 19 14 21 14 4 4 33 -17 51 -15 12 -14 13 2 8
14 -5 17 0 17 38 0 24 5 47 10 50 6 3 10 11 10 18 0 8 -3 8 -12 -1 -22 -22
-29 -13 -8 10 23 25 27 47 6 29 -11 -9 -16 -9 -22 0 -4 7 -3 10 2 7 5 -3 15 0
22 8 13 14 5 19 -21 15 -5 -1 -6 3 -2 9 3 6 11 8 16 5 8 -6 10 0 13 45 1 8 5
21 9 27 6 9 3 11 -10 6 -16 -6 -16 -5 -4 10 7 9 10 17 6 17 -4 0 -2 6 4 14 9
11 9 16 0 22 -8 5 -9 3 -4 -6 5 -9 4 -11 -4 -6 -6 4 -9 11 -6 16 3 5 -3 13
-12 19 -10 6 -13 11 -8 11 6 0 17 -6 24 -12 11 -11 12 -9 6 11 -5 15 -4 21 3
17 6 -3 14 -1 18 5 4 8 3 9 -4 5 -7 -4 -12 -1 -12 9 0 10 5 13 13 9 9 -6 9 -4
1 7 -17 23 -35 71 -24 64 5 -3 10 -1 10 5 0 6 5 8 12 4 7 -4 8 -3 4 5 -4 6
-11 9 -16 6 -4 -3 -10 1 -13 9 -4 10 1 12 16 9 20 -4 20 -3 5 7 -20 12 -24 30
-7 30 5 0 8 -4 5 -8 -3 -5 1 -9 9 -9 8 0 11 5 7 11 -9 15 -9 30 1 37 5 3 1 9
-8 12 -9 4 -14 3 -11 -1 3 -5 -1 -9 -8 -9 -8 0 -12 6 -9 14 3 7 11 13 18 13 8
0 16 4 19 9 3 4 -6 7 -19 5 -14 -1 -23 2 -19 7 3 5 10 6 16 3 6 -4 8 1 3 15
-5 17 -3 20 12 15 11 -4 14 -3 7 3 -14 10 -9 43 8 54 25 16 -3 9 -30 -8 l-27
-16 29 26 c28 26 28 27 7 27 -14 0 -20 -4 -15 -12 4 -7 3 -8 -5 -4 -15 10 -4
26 17 26 15 0 15 2 2 10 -10 6 -11 10 -2 10 6 0 12 4 12 10 0 5 -8 7 -17 5
-10 -3 -5 1 11 8 25 12 26 15 9 19 -11 3 -20 12 -20 21 0 9 6 13 15 10 11 -5
11 -7 0 -14 -7 -5 -8 -9 -2 -9 21 0 24 14 7 33 -15 17 -15 19 -3 15 11 -4 16
1 17 14 1 14 -1 17 -10 9 -9 -7 -12 -4 -12 15 1 13 5 27 10 31 4 5 5 3 1 -4
-3 -6 -1 -15 6 -19 7 -4 10 -3 5 1 -4 5 1 18 10 29 17 20 17 20 1 7 -14 -10
-18 -11 -18 -1 0 10 -3 10 -15 0 -9 -7 -15 -8 -15 -2 0 5 7 13 16 16 14 5 14
9 3 24 -13 15 -12 16 3 3 10 -7 15 -18 11 -24 -3 -6 -1 -7 5 -3 6 4 8 14 5 23
-4 10 -2 14 4 10 5 -3 10 0 10 7 0 7 -6 13 -13 13 -7 0 -10 -5 -7 -10 3 -6 2
-7 -4 -4 -12 8 -11 53 1 64 5 4 6 3 3 -3 -3 -6 0 -11 7 -11 7 0 13 6 13 13 0
7 -4 11 -9 8 -5 -3 -8 11 -6 32 2 27 7 38 17 36 12 -3 12 0 2 11 -6 8 -8 17
-4 19 4 3 3 4 -2 3 -6 -2 -17 5 -25 13 -13 14 -12 15 3 9 10 -4 18 -1 19 6 0
7 2 17 2 22 1 6 5 16 10 24 7 10 6 12 -4 6 -10 -6 -12 -3 -8 13 4 15 2 20 -5
16 -7 -3 -3 2 8 12 14 12 15 15 4 11 -11 -4 -20 3 -28 21 -11 25 -10 26 4 8
11 -14 15 -16 15 -5 0 12 2 12 10 -1 7 -10 10 -11 10 -2 0 7 -8 16 -17 19 -15
6 -15 7 3 14 17 7 17 8 1 8 -10 1 -15 6 -12 11 4 6 12 7 18 4 7 -4 9 -4 5 1
-4 4 -3 14 4 22 6 8 7 13 2 12 -21 -4 -30 2 -31 22 -2 19 -1 20 10 5 10 -13
12 -8 11 31 0 27 5 52 10 56 6 5 0 6 -14 3 -14 -3 -19 -3 -12 0 6 3 12 12 12
20 0 9 -4 13 -9 9 -5 -3 -13 -1 -16 5 -4 6 -3 10 2 9 4 -1 17 -1 28 0 16 1 17
3 5 10 -8 6 -18 7 -24 4 -5 -4 -6 -1 -2 6 5 7 14 10 22 7 8 -3 14 -1 14 4 0 9
-15 14 -33 11 -5 -1 -6 3 -2 9 3 6 12 8 18 4 7 -3 5 0 -3 8 -14 12 -14 15 1
30 10 9 21 13 25 10 4 -4 4 -1 0 6 -6 10 -11 10 -21 2 -12 -10 -13 -7 -6 17
15 48 23 63 34 63 6 0 7 3 4 6 -4 4 -14 1 -24 -7 -15 -12 -16 -12 -10 4 4 10
7 21 7 23 0 3 4 3 9 -1 5 -3 13 0 17 6 4 8 3 9 -4 5 -13 -8 -12 20 0 40 4 6 1
11 -7 11 -7 0 -12 -8 -10 -19 2 -10 0 -18 -6 -18 -5 0 -7 11 -5 24 2 14 -1 27
-7 30 -8 3 -8 5 1 5 7 1 11 5 8 10 -3 4 1 17 10 27 15 18 15 18 5 -2 -7 -15
-7 -21 3 -21 19 0 12 40 -9 43 -9 1 -23 8 -29 15 -8 9 -6 9 10 1 17 -9 24 -7
38 10 16 18 16 20 2 15 -19 -7 -22 9 -3 17 6 3 1 3 -13 0 -17 -4 -21 -2 -12 4
9 6 12 21 9 41 -3 18 -1 29 4 25 5 -3 7 -9 4 -14 -3 -5 -1 -11 4 -15 10 -6 8
16 -4 48 -6 14 -3 16 11 11 11 -3 15 -2 9 3 -6 4 -10 15 -10 23 1 8 -4 21 -9
29 -9 12 -8 13 4 9 20 -7 19 40 -1 53 -11 7 -9 9 9 9 26 0 30 20 5 21 -14 0
-13 2 5 9 26 11 30 22 5 13 -16 -6 -15 -3 2 17 11 13 14 20 6 15 -11 -6 -13
-4 -8 8 3 10 3 17 -2 17 -5 0 -7 10 -7 23 1 12 -3 28 -8 36 -9 12 -8 13 3 6
11 -6 13 -4 8 9 -4 11 -3 15 4 10 7 -4 9 1 4 15 -5 17 -3 20 12 15 16 -6 16
-5 -2 10 -11 10 -15 15 -8 12 6 -4 15 -1 19 5 4 8 3 9 -4 5 -7 -4 -12 -2 -12
4 0 6 -6 8 -12 4 -8 -4 -10 -3 -5 2 5 5 13 10 18 10 5 1 12 2 15 3 4 0 1 8 -6
16 -10 12 -10 15 1 15 10 1 8 4 -3 11 -10 5 -18 15 -18 22 0 7 4 6 10 -3 8
-13 10 -13 10 2 0 9 5 18 12 20 7 3 5 7 -6 11 -11 5 -15 3 -10 -5 5 -7 3 -8
-5 -4 -9 6 -8 13 6 29 10 11 13 18 7 14 -6 -3 -10 8 -10 31 1 26 7 41 21 50
19 12 19 12 -5 7 l-25 -6 25 21 c14 12 19 19 13 15 -16 -8 -17 11 -2 21 8 4 4
13 -12 25 -21 16 -22 17 -4 16 11 -1 24 -6 28 -12 5 -5 5 1 1 15 -4 14 -12 28
-18 32 -7 5 -5 8 5 8 18 0 21 30 4 42 -6 5 -4 8 5 8 13 0 13 1 0 10 -10 6 -11
10 -2 10 6 0 12 5 12 11 0 5 -4 8 -9 5 -5 -3 -7 8 -6 25 2 17 9 35 16 40 11 7
9 9 -6 10 -12 0 -15 3 -7 6 10 4 9 9 -5 20 -10 8 -13 12 -7 9 7 -3 14 1 18 9
3 8 11 15 17 15 8 0 7 -6 -2 -17 -13 -16 -12 -17 4 -4 13 10 14 17 7 27 -9 9
-7 12 7 9 28 -4 34 4 22 28 -9 18 -9 20 2 10 16 -16 33 -17 23 -1 -5 7 -3 8 7
2 21 -13 40 -14 32 -1 -4 6 0 8 11 4 14 -6 15 -4 5 14 -6 12 -7 19 -1 15 5 -3
15 1 22 9 10 12 17 12 34 3 18 -10 19 -9 8 4 -11 14 -9 16 18 14 21 -2 34 3
41 16 5 10 15 17 21 15 6 -1 13 5 15 13 4 13 3 13 -6 0 -6 -8 -11 -10 -11 -4
0 18 13 24 27 13 10 -9 13 -7 14 7 1 11 1 23 0 27 -1 5 3 6 9 2 6 -3 8 -10 5
-15 -3 -5 -1 -12 5 -15 6 -4 9 -1 8 6 -2 6 3 14 11 17 8 2 11 0 8 -5 -3 -5 0
-10 8 -10 10 0 12 4 5 12 -6 8 -4 18 6 31 14 17 15 17 10 1 -5 -15 -2 -16 14
-7 10 5 22 16 26 23 6 9 5 9 -7 0 -13 -10 -16 -10 -16 2 0 7 3 14 6 13 3 0 17
0 30 1 21 1 22 3 10 18 -13 15 -12 15 7 5 22 -12 34 -7 34 12 0 6 -5 4 -10 -4
-5 -8 -10 -10 -10 -4 0 18 13 24 27 12 11 -8 12 -7 7 6 -4 9 -3 16 2 14 15 -4
54 13 54 23 0 6 -5 7 -12 3 -7 -4 -8 -3 -4 4 4 6 14 8 23 5 12 -5 14 -3 8 8
-5 8 2 5 15 -6 l23 -20 -19 30 c-18 30 -18 30 1 15 17 -14 18 -13 12 2 -4 13
-1 16 14 13 11 -2 17 0 13 6 -8 14 15 39 31 33 24 -9 38 6 23 24 -12 14 -10
14 12 2 24 -13 24 -12 10 5 -8 10 -10 16 -3 12 6 -4 19 0 28 9 13 13 13 19 3
33 -12 14 -11 15 4 2 10 -7 16 -17 13 -20 -2 -4 2 -8 9 -8 7 0 12 10 12 21 -1
14 5 21 17 19 13 -1 17 4 12 15 -3 9 -3 13 1 10 4 -4 15 -3 25 2 24 13 31 -9
10 -35 -8 -11 -1 -7 17 9 34 31 40 51 20 59 -7 3 -4 5 7 5 34 1 55 8 68 22 10
12 9 12 -5 1 -13 -9 -18 -10 -18 -2 0 6 7 14 15 17 8 4 12 11 8 18 -5 8 -3 8
8 0 10 -8 18 -6 31 7 14 15 14 18 2 23 -8 3 -12 2 -9 -3 3 -5 1 -12 -4 -15 -5
-4 -8 2 -7 11 2 12 12 18 29 17 22 0 24 2 14 15 -9 12 -9 13 1 7 7 -4 12 -2
12 5 0 8 4 9 13 0 11 -8 13 -6 13 12 -1 17 4 22 21 21 13 0 21 2 18 4 -2 3 5
16 16 31 12 15 16 27 10 29 -22 7 -10 23 12 17 19 -6 20 -5 7 6 -8 8 -14 13
-12 12 9 -4 29 23 24 31 -3 5 0 6 7 2 7 -5 9 -13 4 -20 -4 -7 -1 -5 7 4 9 9
22 14 29 12 8 -3 11 0 7 7 -4 6 -2 11 4 11 6 0 8 5 4 12 -5 8 -2 9 11 4 15 -5
16 -4 5 9 -11 13 -11 16 1 13 8 -2 17 -7 21 -13 5 -6 8 -6 8 2 0 6 -5 15 -10
18 -17 10 8 35 27 28 11 -4 14 -2 9 5 -4 7 -2 12 5 12 8 0 7 5 -2 17 -13 15
-12 15 11 3 23 -12 24 -12 11 3 -11 15 -11 17 2 17 24 0 39 24 24 40 -10 10
-9 11 2 5 11 -6 13 -4 8 8 -4 12 -2 14 10 10 11 -4 14 -2 9 5 -4 8 3 16 18 22
14 5 26 12 26 15 0 4 -4 3 -10 0 -5 -3 -10 -1 -10 5 0 7 9 14 20 17 11 3 20
10 20 15 0 5 -5 6 -10 3 -14 -9 -8 16 8 33 7 8 9 18 6 24 -4 7 -2 8 4 4 9 -5
9 -13 1 -29 -12 -22 -12 -22 8 -2 13 13 16 23 10 27 -7 4 -7 12 2 22 7 8 9 21
5 27 -5 9 -2 10 11 5 16 -6 16 -4 4 11 -12 15 -12 16 5 10 15 -6 17 -5 7 7 -9
11 -9 14 1 12 7 0 15 4 17 9 2 6 12 21 22 34 10 13 16 27 13 32 -3 5 3 6 13 2
15 -6 16 -4 5 9 -10 13 -10 18 -1 24 8 5 9 3 4 -6 -5 -8 -3 -11 6 -8 8 3 13
11 12 17 -2 6 2 11 8 11 5 0 8 4 4 9 -3 5 4 12 15 16 11 3 20 11 20 17 0 6 -7
5 -17 -3 -16 -12 -17 -12 -6 2 7 9 10 19 6 22 -3 4 -2 7 4 7 6 0 22 12 37 27
26 25 26 28 10 40 -17 12 -16 13 3 13 12 0 25 5 28 10 4 6 1 9 -6 8 -8 -2 -14
8 -14 24 -1 15 3 24 8 21 4 -3 6 -11 3 -19 -3 -7 0 -11 7 -8 7 2 13 14 14 24
1 13 -2 18 -10 13 -7 -4 -7 -1 1 10 8 9 11 21 8 26 -4 6 2 8 14 6 18 -3 19 -1
9 17 -9 16 -8 19 2 13 9 -6 11 -3 6 8 -3 9 -1 19 5 23 6 4 8 3 4 -4 -3 -6 -2
-13 3 -17 6 -3 8 5 5 19 -2 15 1 26 11 30 9 3 12 12 8 22 -4 10 -2 15 3 11 6
-3 11 3 11 14 1 10 -4 19 -10 19 -7 0 -4 5 6 11 9 6 14 15 11 21 -4 7 -2 8 4
4 18 -11 34 3 23 21 -5 10 -4 25 5 41 7 13 10 31 6 40 -4 11 -1 14 11 9 11 -4
14 -2 10 9 -3 8 1 22 8 31 8 9 9 14 3 10 -6 -3 -11 0 -11 7 0 8 7 12 15 9 12
-5 12 -2 3 15 -10 19 -9 21 6 15 13 -5 15 -3 10 11 -5 13 -3 17 6 13 10 -4 14
4 12 29 -1 19 2 34 7 34 4 0 8 5 8 11 0 5 -3 8 -7 6 -5 -3 -8 8 -8 23 0 22 3
26 13 18 9 -8 11 -7 7 5 -4 8 -1 18 5 22 8 5 6 14 -5 32 -16 23 -16 24 3 14
16 -8 23 -7 33 7 12 15 12 16 -2 4 -13 -10 -19 -10 -28 2 -9 11 -9 16 0 22 8
5 10 3 4 -7 -5 -8 -4 -10 0 -6 11 10 16 39 6 32 -4 -2 -8 2 -8 10 0 8 5 11 10
8 6 -4 8 3 4 16 -4 16 -2 21 8 17 14 -5 15 18 0 31 -4 4 -5 2 0 -6 5 -10 4
-12 -4 -7 -6 4 -9 12 -5 17 3 5 9 7 14 4 5 -3 12 0 16 6 4 7 3 9 -4 5 -6 -3
-13 -2 -17 4 -3 5 0 10 8 10 17 0 30 27 17 35 -11 7 -5 41 8 38 5 -1 16 5 24
14 10 13 10 15 0 9 -10 -6 -11 -1 -6 21 4 15 8 30 10 32 2 2 -1 10 -7 18 -9
10 -7 13 7 13 12 0 15 3 7 8 -7 4 -11 28 -10 57 2 52 15 63 47 41 13 -10 13
-9 0 8 -17 22 -17 25 2 38 10 7 9 8 -4 4 -20 -6 -25 10 -5 17 7 3 4 6 -6 6
-10 1 -15 6 -12 11 4 6 11 8 16 5 5 -3 6 1 3 9 -3 9 -9 14 -13 11 -4 -2 -8 2
-8 10 0 18 9 19 27 3 12 -11 12 -10 1 5 -7 9 -11 17 -7 17 4 0 -1 15 -10 33
-16 30 -16 31 0 18 14 -12 16 -12 10 3 -3 9 -11 16 -16 16 -6 0 -4 8 3 17 8
10 9 14 2 10 -6 -4 -15 -2 -19 4 -4 7 -3 9 3 6 6 -4 17 1 24 10 10 12 10 14 2
9 -7 -4 -14 -2 -14 3 -1 6 -2 17 -3 24 -1 6 4 22 12 34 9 15 10 23 2 28 -8 5
-6 11 6 19 13 10 14 15 4 21 -9 6 -11 4 -5 -5 5 -9 4 -11 -4 -6 -9 6 -9 11 0
22 9 11 9 14 -2 11 -8 -2 -11 -2 -6 0 4 3 5 9 2 14 -4 5 1 6 10 2 15 -5 15 -3
3 16 -11 18 -11 23 2 31 8 5 10 10 5 10 -6 0 -15 -4 -21 -10 -6 -6 -10 -3 -10
9 0 11 4 17 8 15 4 -3 8 2 8 10 0 9 -6 16 -12 16 -9 0 -8 4 2 10 8 5 10 10 3
10 -13 0 -12 25 2 37 4 4 5 3 1 -4 -3 -6 -2 -14 3 -18 14 -8 5 33 -11 53 -11
13 -10 15 4 9 12 -4 15 -2 11 9 -3 7 -9 14 -14 14 -5 0 -9 5 -9 11 0 6 7 9 14
6 10 -4 13 -1 9 9 -3 7 -9 14 -14 14 -5 0 -9 5 -9 11 0 5 5 7 10 4 6 -3 10 -2
10 4 0 5 -6 12 -12 14 -10 4 -10 6 0 6 6 1 12 6 12 12 0 5 -6 7 -12 3 -9 -5
-9 -2 1 9 12 15 9 21 -11 18 -5 0 -8 4 -8 9 0 6 7 10 15 10 18 0 20 16 3 26
-7 5 -8 3 -3 -6 5 -8 4 -11 -3 -6 -6 4 -8 14 -5 23 5 12 3 14 -8 9 -8 -4 -6
-1 3 7 16 13 16 15 0 31 -16 17 -16 18 8 11 23 -7 23 -7 7 9 -18 19 -23 31 -8
21 5 -3 13 0 17 6 4 7 3 9 -4 5 -6 -3 -13 -2 -17 4 -4 6 -11 7 -17 4 -7 -4 -8
-2 -4 5 4 6 11 9 15 7 4 -3 7 5 6 17 -2 13 -8 21 -16 19 -8 -1 -6 4 5 13 17
13 18 15 3 15 -9 0 -17 5 -17 11 0 5 6 7 13 3 6 -4 4 2 -5 13 -20 22 -23 33
-7 33 5 0 7 -4 4 -10 -3 -5 -1 -10 4 -10 14 0 14 17 0 26 -6 3 -8 15 -6 26 4
14 1 18 -8 14 -10 -3 -12 0 -8 11 4 9 2 14 -3 10 -6 -3 -11 3 -11 14 -1 10 3
19 8 19 6 0 7 -5 3 -12 -4 -7 -3 -8 4 -4 9 5 7 14 -5 32 -13 20 -14 27 -3 37
10 9 11 9 5 -2 -5 -9 -4 -12 3 -8 5 4 9 15 7 25 -2 9 -4 27 -4 40 -1 16 -5 21
-13 16 -8 -5 -8 -2 1 10 8 9 10 16 5 15 -21 -4 -34 2 -34 16 0 8 -6 15 -12 15
-9 0 -8 4 2 10 11 7 11 10 2 10 -7 0 -10 5 -7 10 3 6 -1 10 -9 10 -9 0 -16 9
-16 20 0 11 -5 20 -12 20 -6 0 -3 7 8 15 13 10 14 13 3 10 -9 -3 -22 2 -30 11
-9 12 -10 15 -1 10 20 -12 14 4 -10 26 -13 11 -17 17 -10 13 6 -3 12 -1 12 4
0 6 -4 11 -10 11 -14 0 -12 27 3 33 6 3 1 6 -13 6 -14 1 -20 4 -14 9 18 12 12
41 -13 69 -14 14 -18 23 -10 20 9 -3 18 0 21 8 3 9 -1 12 -14 10 -10 -2 -25 4
-32 13 -12 15 -11 16 5 3 17 -13 18 -12 15 10 -2 13 -7 30 -12 38 -6 9 -5 12
1 8 6 -4 17 1 24 11 12 15 12 15 -1 5 -12 -9 -19 -8 -34 3 -12 8 -14 14 -7 14
8 0 11 6 7 16 -4 10 -2 13 7 9 6 -4 4 0 -5 8 -10 8 -18 21 -18 30 0 8 -7 18
-16 21 -11 4 -14 14 -11 29 6 21 6 21 -8 3 -17 -23 -20 -14 -5 15 9 15 7 21
-5 25 -13 5 -13 9 -3 23 10 13 10 14 -1 4 -14 -12 -41 -7 -41 7 0 5 6 15 13
22 12 11 10 17 -12 33 l-26 19 20 -25 20 -24 -21 18 c-19 15 -31 52 -13 42 4
-3 9 1 12 8 6 17 -22 19 -43 3 -8 -6 -7 -1 4 11 10 13 24 20 30 16 6 -4 5 1
-3 10 -7 9 -17 14 -22 11 -5 -3 -9 2 -9 10 0 9 -5 16 -10 16 -6 0 -8 11 -6 25
3 15 1 23 -5 20 -5 -4 -7 -10 -5 -14 3 -4 -1 -8 -9 -8 -10 0 -12 4 -5 12 6 7
5 16 -3 25 -9 10 -9 11 1 6 6 -4 12 -2 12 3 0 6 -5 11 -11 11 -6 0 -8 9 -4 23
3 12 3 18 -2 12 -4 -5 -15 -11 -23 -13 -10 -3 -9 3 5 19 l20 22 -25 -13 c-23
-12 -24 -12 -11 4 12 14 12 16 -1 11 -8 -3 -21 2 -29 11 -9 12 -10 15 -1 10 8
-5 12 0 12 13 0 12 -5 21 -11 21 -5 0 -7 -5 -3 -12 4 -6 3 -8 -3 -5 -6 4 -9
18 -8 32 2 14 0 25 -5 25 -10 0 -8 20 3 38 5 7 3 12 -3 12 -6 0 -8 5 -5 10 4
6 10 8 15 5 5 -3 12 -1 15 5 4 6 3 10 -2 9 -22 -4 -33 3 -33 20 0 10 -7 22
-16 25 -13 5 -14 4 -6 -7 9 -10 8 -14 -2 -14 -15 0 -16 14 -2 36 6 10 5 12 -2
7 -7 -4 -12 -2 -12 3 0 6 -7 11 -16 11 -8 0 -12 5 -9 10 3 6 1 10 -4 10 -6 0
-11 5 -11 11 0 5 6 7 13 3 8 -5 8 -2 -2 9 -7 9 -19 17 -25 17 -6 0 -4 -5 4
-11 13 -9 13 -10 0 -6 -8 2 -14 11 -12 21 3 14 -14 21 -40 17 -4 0 -5 6 -1 15
5 13 7 13 14 2 7 -10 9 -8 9 6 0 14 -5 17 -21 13 -17 -5 -18 -3 -7 11 11 13
10 15 -10 10 -12 -4 -20 -3 -17 2 3 4 -2 13 -10 20 -8 7 -15 17 -15 22 0 6 9
0 21 -13 l20 -24 -17 28 c-10 17 -23 26 -31 23 -8 -3 -11 -2 -8 3 3 6 -1 14
-10 18 -8 5 -16 21 -17 35 -1 15 -6 24 -10 22 -4 -3 -5 -12 -2 -22 5 -14 4
-14 -4 -2 -6 8 -8 18 -6 22 3 4 0 8 -7 8 -8 0 -8 4 -1 13 7 9 4 20 -14 40 -13
15 -24 25 -24 21 0 -4 10 -19 23 -33 12 -14 15 -20 6 -13 -9 6 -19 8 -23 4 -4
-4 -7 -2 -6 3 4 21 -13 55 -31 60 -11 4 -17 11 -14 16 6 9 -8 13 -32 10 -7 -1
-13 3 -13 9 0 6 5 8 11 4 7 -4 10 -1 7 7 -3 8 -11 13 -18 11 -10 -2 -10 1 1
14 8 10 9 15 2 11 -19 -12 -45 3 -33 18 8 10 8 15 -1 21 -8 4 -9 3 -5 -4 11
-18 -10 -14 -25 5 -12 14 -12 16 0 8 10 -5 12 -4 7 4 -5 7 -17 9 -29 5 -22 -6
-22 -6 -2 11 17 14 17 16 3 11 -10 -3 -18 -1 -18 5 0 6 -4 7 -10 4 -5 -3 -10
1 -10 10 0 10 5 13 12 9 7 -4 8 -3 4 5 -6 9 -11 9 -24 -1 -9 -8 -13 -8 -9 -2
6 11 -19 29 -36 26 -4 -1 -6 1 -6 5 4 26 -4 41 -27 51 -19 9 -24 9 -18 1 5 -8
3 -9 -5 -5 -7 5 -10 15 -6 23 4 12 2 13 -8 5 -10 -9 -14 -8 -14 3 0 8 5 15 10
15 6 0 7 3 4 6 -4 4 -14 1 -23 -7 -16 -13 -17 -12 -12 8 3 12 3 22 -1 21 -21
-2 -31 3 -25 15 5 7 2 7 -10 -2 -9 -8 -16 -10 -15 -5 1 5 1 16 -1 24 -1 11 -4
9 -10 -5 -7 -16 -9 -17 -9 -3 -1 9 -11 25 -24 35 -13 10 -22 24 -21 31 1 7 0
8 -3 2 -2 -5 -12 -10 -20 -10 -9 0 -14 3 -10 6 3 3 -3 15 -13 27 -11 11 -17
24 -13 30 3 5 -4 4 -15 -2 -18 -9 -19 -8 -15 12 4 18 3 19 -6 7 -8 -12 -11
-12 -11 -1 0 8 -6 11 -17 7 -16 -6 -16 -6 0 12 14 15 14 19 2 19 -8 0 -12 -4
-9 -9 8 -13 -6 -9 -22 6 -8 8 -23 13 -34 11 -11 -2 -20 1 -20 6 0 6 -4 7 -10
4 -6 -3 -7 1 -4 9 5 12 -1 16 -22 16 -23 0 -26 2 -14 11 12 9 11 10 -7 6 -20
-4 -21 -3 -12 15 10 18 9 19 -11 8 -18 -10 -21 -9 -15 1 6 9 3 11 -9 6 -9 -4
-15 -3 -11 2 3 5 -1 16 -9 24 -8 8 -12 18 -8 22 4 5 2 5 -4 2 -6 -4 -20 0 -30
8 -16 13 -17 16 -4 25 8 5 10 10 4 10 -5 0 -16 -6 -23 -12 -11 -11 -13 -10 -8
4 3 10 1 20 -5 24 -6 4 -8 3 -4 -4 3 -6 2 -13 -4 -17 -5 -3 -10 1 -10 9 0 19
-16 21 -24 4 -3 -7 -3 -3 0 10 6 24 -5 29 -25 10 -11 -11 -12 -9 -7 9 6 18 4
21 -13 18 -14 -2 -18 1 -15 10 4 10 0 12 -15 8 -16 -4 -21 -1 -21 13 0 16 -2
17 -10 4 -8 -12 -10 -12 -10 5 0 17 -2 17 -10 5 -8 -13 -10 -12 -10 3 0 9 -5
17 -11 17 -5 0 -8 -4 -4 -9 6 -11 -34 -6 -44 5 -3 4 1 5 10 1 13 -4 16 -1 11
16 -3 12 -7 16 -10 9 -3 -10 -7 -10 -20 0 -13 11 -15 11 -7 -2 6 -12 5 -12 -5
-3 -7 6 -18 10 -24 9 -6 -2 -8 -1 -4 1 4 2 4 11 1 19 -4 12 -8 12 -19 -3 -13
-17 -14 -17 -7 1 5 15 3 18 -10 13 -11 -4 -17 -1 -17 8 0 9 -9 15 -22 14 -22
0 -22 -1 -3 -9 15 -6 16 -9 4 -9 -22 -1 -31 10 -19 23 6 8 2 12 -12 13 -12 1
-25 8 -31 15 -6 9 -7 8 -3 -5 4 -11 2 -16 -5 -12 -5 4 -16 2 -24 -5 -9 -8 -15
-8 -20 0 -3 6 -12 7 -18 4 -7 -4 -8 -3 -4 2 5 5 18 9 29 9 12 0 22 6 24 13 1
7 0 8 -2 3 -3 -5 -16 -8 -28 -5 -18 3 -26 -2 -36 -25 -7 -18 -18 -28 -28 -26
-9 1 -26 -5 -37 -14 -20 -16 -20 -16 -1 6 10 12 21 22 25 21 19 -2 27 4 28 25
2 22 2 22 -10 2 -12 -21 -42 -28 -42 -10 0 5 7 9 15 7 13 -3 13 -2 0 7 -11 7
-19 6 -30 -5 -12 -12 -13 -16 -1 -23 8 -5 9 -11 3 -15 -12 -7 -23 19 -16 37 6
18 -17 36 -48 39 -17 1 -25 8 -23 18 1 8 7 15 13 15 6 0 14 4 19 9 5 5 3 6 -4
2 -8 -4 -13 -2 -13 5 0 8 -4 8 -15 -1 -14 -11 -14 -10 -5 14 14 38 13 44 -5
18 -13 -18 -19 -20 -35 -10 -10 7 -16 17 -12 23 3 5 -3 3 -13 -5 -15 -12 -17
-12 -10 -1 6 11 4 13 -8 8 -11 -4 -17 -1 -17 7 0 14 -23 16 -36 3 -4 -4 -19 3
-32 15 -14 13 -22 18 -19 12 7 -12 -21 -29 -31 -19 -3 3 0 5 6 5 21 0 12 16
-10 17 -11 1 -24 6 -27 10 -10 13 -31 14 -31 0 0 -8 -4 -7 -10 3 -9 13 -11 13
-20 0 -8 -13 -10 -12 -11 5 -1 11 -1 23 -1 26 1 3 -15 4 -34 2 -23 -2 -33 0
-29 7 3 5 2 10 -4 10 -5 0 -11 -6 -14 -12 -3 -10 -8 -10 -18 1 -12 12 -12 13
0 6 10 -5 12 -4 7 4 -4 6 -13 8 -19 4 -20 -12 -48 -11 -37 2 16 19 -2 27 -21
9 -13 -12 -19 -12 -25 -3 -5 8 -3 10 7 4 8 -5 11 -4 6 1 -5 5 -13 10 -18 10
-5 1 -10 2 -11 4 -7 6 -86 5 -82 -1 2 -4 -3 -9 -11 -13 -8 -3 -14 -2 -14 2 4
22 -3 31 -18 25 -12 -5 -14 -3 -8 8 8 12 6 12 -8 0 -16 -13 -22 -8 -18 13 1 5
-4 5 -11 -1 -7 -6 -21 -9 -31 -8 -9 2 -15 -1 -11 -6 3 -5 0 -9 -5 -9 -6 0 -11
5 -11 12 0 9 -3 9 -11 1 -12 -12 -42 -6 -34 7 7 11 -22 6 -32 -5 -4 -4 -2 -5
5 -1 6 4 12 2 12 -3 0 -14 -17 -14 -25 -1 -5 8 -12 7 -23 -2 -12 -10 -14 -10
-8 0 5 8 0 12 -14 12 -12 0 -18 -4 -15 -10 3 -6 -1 -7 -9 -4 -9 3 -14 9 -11
13 2 4 -2 8 -9 8 -9 0 -12 -7 -8 -16 5 -14 3 -14 -11 -2 -9 7 -23 11 -32 7 -8
-3 -14 -2 -14 2 3 18 -2 32 -11 32 -5 0 -9 -4 -7 -9 1 -5 -2 -9 -8 -9 -5 0 -9
4 -7 10 1 5 -2 7 -8 3 -6 -3 -8 -11 -5 -16 10 -16 -5 -10 -27 11 -17 15 -24
17 -35 8 -11 -9 -17 -8 -24 3 -6 10 -9 10 -9 2 0 -7 -9 -13 -19 -13 -11 0 -21
-5 -23 -12 -3 -7 -7 -5 -11 6 -4 10 -3 15 3 11 6 -3 10 -2 10 4 0 5 -9 9 -20
8 -10 -1 -17 -3 -15 -5z m133 -15 c8 -10 6 -13 -9 -13 -19 0 -24 7 -12 19 8 9
9 9 21 -6z m-44 -13 c3 -8 2 -12 -4 -9 -6 3 -10 10 -10 16 0 14 7 11 14 -7z
m426 -19 c0 -2 -6 -8 -13 -14 -10 -8 -14 -7 -14 2 0 8 6 14 14 14 7 0 13 -1
13 -2z m-780 -15 c0 -5 -5 -10 -11 -10 -5 0 -7 5 -4 10 3 6 8 10 11 10 2 0 4
-4 4 -10z m905 -10 c-3 -5 -12 -10 -18 -10 -7 0 -6 4 3 10 19 12 23 12 15 0z
m35 0 c0 -5 -5 -10 -11 -10 -5 0 -7 5 -4 10 3 6 8 10 11 10 2 0 4 -4 4 -10z
m-1135 -10 c-3 -5 -12 -10 -18 -10 -7 0 -6 4 3 10 19 12 23 12 15 0z m-175
-30 c6 -11 8 -20 6 -20 -3 0 -10 9 -16 20 -6 11 -8 20 -6 20 3 0 10 -9 16 -20z
m-675 -180 c3 -5 1 -10 -4 -10 -6 0 -11 5 -11 10 0 6 2 10 4 10 3 0 8 -4 11
-10z m2589 -18 c2 -4 0 -14 -6 -22 -8 -12 -9 -12 -4 2 3 10 -1 18 -12 21 -16
4 -16 5 0 6 9 0 19 -3 22 -7z m213 -47 c0 -8 -4 -12 -9 -9 -5 3 -6 10 -3 15 9
13 12 11 12 -6z m-3040 -30 c0 -8 -4 -12 -9 -9 -5 3 -6 10 -3 15 9 13 12 11
12 -6z m3788 -436 c-4 -5 -12 -9 -18 -8 -9 0 -8 2 1 6 6 2 9 10 6 15 -4 7 -2
8 5 4 6 -4 9 -12 6 -17z m-4583 -56 c-6 -3 -9 -10 -5 -16 3 -7 3 -9 -2 -5 -4
4 -14 0 -22 -10 -9 -10 -12 -11 -7 -2 12 25 37 50 43 44 3 -4 0 -9 -7 -11z
m4638 7 c0 -5 -2 -10 -4 -10 -3 0 -8 5 -11 10 -3 6 -1 10 4 10 6 0 11 -4 11
-10z m25 -10 c3 -5 1 -10 -4 -10 -6 0 -11 5 -11 10 0 6 2 10 4 10 3 0 8 -4 11
-10z m-4695 -54 c0 -2 -7 -7 -16 -10 -8 -3 -12 -2 -9 4 6 10 25 14 25 6z
m4620 0 c0 -2 -8 -10 -17 -17 -16 -13 -17 -12 -4 4 13 16 21 21 21 13z m258
-101 c-3 -3 -9 2 -12 12 -6 14 -5 15 5 6 7 -7 10 -15 7 -18z m-5208 -245 c0
-5 -5 -10 -11 -10 -5 0 -7 5 -4 10 3 6 8 10 11 10 2 0 4 -4 4 -10z m-126 -98
c3 -5 -1 -9 -9 -9 -8 0 -12 4 -9 9 3 4 7 8 9 8 2 0 6 -4 9 -8z m-74 -96 c0 -2
-7 -7 -16 -10 -8 -3 -12 -2 -9 4 6 10 25 14 25 6z m-163 -222 c-3 -3 -12 -4
-19 -1 -8 3 -5 6 6 6 11 1 17 -2 13 -5z m-117 -188 c0 -2 -8 -10 -17 -17 -16
-13 -17 -12 -4 4 13 16 21 21 21 13z m6597 -688 c2 -17 0 -19 -7 -8 -5 8 -6
18 -4 22 8 12 10 10 11 -14z m30 -23 c0 -8 -4 -12 -9 -9 -5 3 -6 10 -3 15 9
13 12 11 12 -6z m-7006 -222 c-12 -20 -14 -14 -5 12 4 9 9 14 11 11 3 -2 0
-13 -6 -23z m-51 -193 c0 -5 -5 -10 -11 -10 -5 0 -7 5 -4 10 3 6 8 10 11 10 2
0 4 -4 4 -10z m-30 -355 c0 -2 -6 -5 -13 -8 -8 -3 -14 1 -14 8 0 7 6 11 14 8
7 -3 13 -6 13 -8z m-10 -95 c-18 -12 -30 -13 -30 -2 0 4 10 9 22 9 18 2 20 0
8 -7z m10 -180 c0 -5 -5 -10 -11 -10 -5 0 -7 5 -4 10 3 6 8 10 11 10 2 0 4 -4
4 -10z m-20 -95 c0 -2 -6 -8 -13 -14 -10 -8 -14 -7 -14 2 0 8 6 14 14 14 7 0
13 -1 13 -2z m20 -25 c0 -5 -5 -10 -11 -10 -5 0 -7 5 -4 10 3 6 8 10 11 10 2
0 4 -4 4 -10z m7300 -94 c0 -2 -7 -7 -16 -10 -8 -3 -12 -2 -9 4 6 10 25 14 25
6z m-7325 -56 c-3 -5 -12 -10 -18 -10 -7 0 -6 4 3 10 19 12 23 12 15 0z m15
-30 c0 -5 -2 -10 -4 -10 -3 0 -8 5 -11 10 -3 6 -1 10 4 10 6 0 11 -4 11 -10z
m25 -278 c-3 -3 -11 0 -18 7 -9 10 -8 11 6 5 10 -3 15 -9 12 -12z m12 -38 c-3
-3 -12 -4 -19 -1 -8 3 -5 6 6 6 11 1 17 -2 13 -5z m30 -49 c0 -8 -4 -12 -9 -9
-5 3 -6 10 -3 15 9 13 12 11 12 -6z m7173 -159 c0 -3 -4 -8 -10 -11 -5 -3 -10
-1 -10 4 0 6 5 11 10 11 6 0 10 -2 10 -4z m-7130 -190 c0 -3 -4 -8 -10 -11 -5
-3 -10 -1 -10 4 0 6 5 11 10 11 6 0 10 -2 10 -4z m7075 -47 c-4 -5 -12 -9 -18
-8 -9 0 -8 2 1 6 6 2 9 10 6 15 -4 7 -2 8 5 4 6 -4 9 -12 6 -17z m-7092 -234
c4 -8 1 -17 -5 -21 -7 -4 -8 -3 -4 4 4 7 2 12 -4 12 -6 0 -8 5 -5 10 8 14 12
13 18 -5z m-3 -39 c0 -3 -4 -8 -10 -11 -5 -3 -10 -1 -10 4 0 6 5 11 10 11 6 0
10 -2 10 -4z m-120 -81 c0 -8 -4 -15 -10 -15 -5 0 -7 7 -4 15 4 8 8 15 10 15
2 0 4 -7 4 -15z m-59 -24 c-5 -9 -7 -24 -6 -33 2 -9 -4 -23 -13 -30 -15 -11
-15 -11 -6 2 6 8 10 29 9 46 0 18 4 31 12 31 8 0 9 -6 4 -16z m34 -29 c-3 -3
-11 0 -18 7 -9 10 -8 11 6 5 10 -3 15 -9 12 -12z m-71 -14 c-3 -4 -12 -8 -20
-8 -8 0 -14 4 -14 8 0 4 9 8 19 8 11 0 17 -4 15 -8z m-44 -14 c0 -2 -7 -4 -15
-4 -8 0 -15 4 -15 10 0 5 7 7 15 4 8 -4 15 -8 15 -10z m-100 -84 c0 -5 -4 -10
-10 -10 -5 0 -10 5 -10 10 0 6 5 10 10 10 6 0 10 -4 10 -10z m-5 -29 c3 -5 2
-12 -3 -15 -5 -3 -9 1 -9 9 0 17 3 19 12 6z m-178 -91 c-1 -12 -5 -16 -10 -11
-5 5 -6 14 -3 20 11 16 15 13 13 -9z m-30 3 c-4 -3 -2 -12 4 -20 9 -9 8 -13 0
-13 -6 0 -11 5 -11 11 0 5 -6 7 -12 3 -9 -5 -9 -2 1 9 7 9 16 17 19 17 3 0 2
-3 -1 -7z m13 -63 c0 -5 -2 -10 -4 -10 -3 0 -8 5 -11 10 -3 6 -1 10 4 10 6 0
11 -4 11 -10z m7400 -14 c0 -2 -8 -10 -17 -17 -16 -13 -17 -12 -4 4 13 16 21
21 21 13z m-7605 -86 c4 -6 1 -9 -7 -8 -7 2 -12 -3 -10 -10 1 -8 -2 -11 -8 -7
-8 5 -7 11 1 21 14 17 16 17 24 4z m-126 -93 c0 -9 -2 -8 -6 1 -2 6 -10 9 -15
6 -7 -4 -8 -2 -4 5 9 13 26 5 25 -12z m-66 -42 c-3 -9 -8 -14 -10 -11 -3 3 -2
9 2 15 9 16 15 13 8 -4z m-247 -192 c-10 -10 -19 5 -10 18 6 11 8 11 12 0 2
-7 1 -15 -2 -18z m-24 -49 c-9 -16 -10 -14 -9 8 1 15 6 23 11 18 4 -4 4 -16
-2 -26z m7733 -64 c-3 -5 -11 -10 -16 -10 -6 0 -7 5 -4 10 3 6 11 10 16 10 6
0 7 -4 4 -10z m-7945 -94 c0 -3 -4 -8 -10 -11 -5 -3 -10 -1 -10 4 0 6 5 11 10
11 6 0 10 -2 10 -4z m-86 -41 c-4 -8 -10 -12 -15 -9 -11 6 -2 24 11 24 5 0 7
-7 4 -15z m-114 -106 c0 -5 -4 -8 -9 -4 -5 3 -12 1 -16 -5 -3 -5 -12 -10 -18
-10 -7 0 -3 7 7 15 23 18 36 19 36 4z m-40 -39 c0 -5 -2 -10 -4 -10 -3 0 -8 5
-11 10 -3 6 -1 10 4 10 6 0 11 -4 11 -10z m-160 -154 c0 -3 -4 -8 -10 -11 -5
-3 -10 -1 -10 4 0 6 5 11 10 11 6 0 10 -2 10 -4z m30 -20 c0 -2 -8 -10 -17
-17 -16 -13 -17 -12 -4 4 13 16 21 21 21 13z m7851 -39 c-10 -9 -11 -8 -5 6 3
10 9 15 12 12 3 -3 0 -11 -7 -18z m-8021 -17 c0 -5 -5 -10 -11 -10 -5 0 -7 5
-4 10 3 6 8 10 11 10 2 0 4 -4 4 -10z m-84 -106 c1 -9 0 -13 -4 -10 -3 4 -7
14 -8 22 -1 9 0 13 4 10 3 -4 7 -14 8 -22z m-306 -236 c0 -4 -7 -8 -15 -8 -8
0 -15 4 -15 8 0 5 7 9 15 9 8 0 15 -4 15 -9z m-13 -33 c0 -8 -4 -12 -9 -9 -4
3 -8 9 -8 15 0 5 4 9 8 9 5 0 9 -7 9 -15z m7797 -18 c4 4 4 -1 0 -10 -3 -10
-7 -17 -8 -15 -1 2 -8 12 -16 23 -14 18 -13 19 1 8 9 -7 19 -10 23 -6z m-142
-89 c-7 -7 -12 -8 -12 -2 0 14 12 26 19 19 2 -3 -1 -11 -7 -17z m-7907 -88
c-3 -5 -1 -10 4 -10 6 0 11 -5 11 -11 0 -8 -5 -8 -15 1 -13 11 -12 30 1 30 3
0 2 -4 -1 -10z m7760 -530 c3 -6 -1 -7 -9 -4 -18 7 -21 14 -7 14 6 0 13 -4 16
-10z m-8465 -164 c0 -2 -7 -9 -15 -16 -13 -11 -14 -10 -9 4 5 14 24 23 24 12z
m8444 -44 c3 -5 -1 -9 -9 -9 -8 0 -12 4 -9 9 3 4 7 8 9 8 2 0 6 -4 9 -8z
m-3729 -161 c3 -5 2 -12 -3 -15 -5 -3 -9 1 -9 9 0 17 3 19 12 6z m3709 -7 c5
-14 4 -15 -9 -4 -17 14 -19 20 -6 20 5 0 12 -7 15 -16z m-8667 -39 c0 -8 -4
-12 -9 -9 -4 3 -8 9 -8 15 0 5 4 9 8 9 5 0 9 -7 9 -15z m4958 -4 c3 -5 2 -12
-3 -15 -5 -3 -9 1 -9 9 0 17 3 19 12 6z m-40 -29 c-3 -3 -11 0 -18 7 -9 10 -8
11 6 5 10 -3 15 -9 12 -12z m-368 -8 c-3 -3 -12 -4 -19 -1 -8 3 -5 6 6 6 11 1
17 -2 13 -5z m374 -51 c13 -16 12 -17 -3 -4 -10 7 -18 15 -18 17 0 8 8 3 21
-13z m3734 -23 c3 -5 1 -10 -4 -10 -6 0 -11 5 -11 10 0 6 2 10 4 10 3 0 8 -4
11 -10z m-3791 -34 c-3 -9 -10 -16 -15 -16 -5 0 -4 9 3 20 14 22 21 20 12 -4z
m36 -10 c0 -2 -8 -10 -17 -17 -16 -13 -17 -12 -4 4 13 16 21 21 21 13z m-455
-45 c3 -5 0 -13 -6 -17 -7 -4 -9 -3 -5 4 3 5 0 13 -6 15 -9 4 -10 6 -1 6 6 1
14 -3 18 -8z m4193 -86 c-3 -3 -9 2 -12 12 -6 14 -5 15 5 6 7 -7 10 -15 7 -18z
m-3813 -5 c3 -6 -1 -7 -10 -4 -11 5 -14 2 -9 -12 5 -15 4 -16 -4 -4 -11 15 -7
30 8 30 5 0 12 -4 15 -10z m20 -60 c-3 -5 -12 -10 -18 -10 -7 0 -6 4 3 10 19
12 23 12 15 0z m3775 -34 c0 -2 -7 -7 -16 -10 -8 -3 -12 -2 -9 4 6 10 25 14
25 6z m-3820 -42 c0 -8 -19 -13 -24 -6 -3 5 1 9 9 9 8 0 15 -2 15 -3z m-5299
-57 c-6 -8 -7 -18 -3 -22 4 -5 1 -5 -6 -1 -10 6 -10 11 -1 22 6 8 14 14 16 14
3 0 0 -6 -6 -13z m5254 -26 c3 -5 2 -12 -3 -15 -5 -3 -9 1 -9 9 0 17 3 19 12
6z m-511 -42 c-3 -5 -10 -7 -15 -3 -5 3 -7 10 -3 15 3 5 10 7 15 3 5 -3 7 -10
3 -15z m4396 -19 c0 -5 -5 -10 -11 -10 -5 0 -7 5 -4 10 3 6 8 10 11 10 2 0 4
-4 4 -10z m-4442 -36 c-1 -5 -9 -9 -16 -10 -10 -2 -11 1 -1 12 12 14 24 13 17
-2z m4439 -70 c-3 -3 -12 -4 -19 -1 -8 3 -5 6 6 6 11 1 17 -2 13 -5z m-11
-173 c0 -14 -4 -17 -12 -11 -6 6 -13 9 -15 7 -2 -1 2 4 10 11 8 6 15 12 16 12
0 0 1 -9 1 -19z m-9421 -41 c3 -6 -1 -7 -9 -4 -18 7 -21 14 -7 14 6 0 13 -4
16 -10z m9421 -37 c-10 -11 -37 -12 -30 -2 3 5 12 9 21 9 9 0 13 -3 9 -7z
m-4663 -70 c3 -5 -6 -24 -19 -43 -13 -19 -24 -31 -24 -26 0 4 9 21 20 36 15
21 17 30 8 33 -9 4 -10 6 -1 6 6 1 14 -2 16 -6z m-4753 -83 c-6 -11 -15 -20
-20 -20 -6 0 -2 9 7 20 10 11 19 20 21 20 1 0 -2 -9 -8 -20z m55 -50 c4 -6 -1
-7 -11 -3 -13 5 -15 3 -9 -7 5 -9 4 -11 -4 -6 -6 4 -9 12 -6 17 8 12 22 12 30
-1z m4588 -35 c-3 -9 -8 -14 -10 -11 -3 3 -2 9 2 15 9 16 15 13 8 -4z m-4473
-71 c0 -8 -19 -13 -24 -6 -3 5 1 9 9 9 8 0 15 -2 15 -3z m19 -11 c-3 -21 2
-33 13 -27 7 5 8 3 3 -6 -6 -10 -11 -9 -21 5 -7 10 -11 22 -8 26 6 11 14 12
13 2z m5165 -1 c3 -5 -1 -9 -9 -9 -8 0 -12 4 -9 9 3 4 7 8 9 8 2 0 6 -4 9 -8z
m-5069 -62 c3 -5 1 -10 -4 -10 -6 0 -11 5 -11 10 0 6 2 10 4 10 3 0 8 -4 11
-10z m4275 -15 c-7 -8 -17 -15 -22 -15 -11 0 14 29 26 30 5 0 3 -7 -4 -15z
m-4245 -45 c3 -5 1 -10 -4 -10 -6 0 -11 5 -11 10 0 6 2 10 4 10 3 0 8 -4 11
-10z m70 -28 c-3 -3 -11 0 -18 7 -9 10 -8 11 6 5 10 -3 15 -9 12 -12z m8995
-6 c0 -2 -7 -7 -16 -10 -8 -3 -12 -2 -9 4 6 10 25 14 25 6z m-4180 -246 c0 -5
-5 -10 -11 -10 -5 0 -7 5 -4 10 3 6 8 10 11 10 2 0 4 -4 4 -10z m4150 6 c0 -3
-4 -8 -10 -11 -5 -3 -10 -1 -10 4 0 6 5 11 10 11 6 0 10 -2 10 -4z m15 -26 c3
-5 1 -10 -4 -10 -6 0 -11 5 -11 10 0 6 2 10 4 10 3 0 8 -4 11 -10z m-5091
-111 c-3 -5 -10 -7 -15 -3 -5 3 -7 10 -3 15 3 5 10 7 15 3 5 -3 7 -10 3 -15z
m5080 -14 c-4 -8 -11 -12 -16 -9 -6 4 -5 10 3 15 19 12 19 11 13 -6z m-3 -88
c-10 -9 -11 -8 -5 6 3 10 9 15 12 12 3 -3 0 -11 -7 -18z m-8333 -95 c15 12 16
11 3 -5 -10 -13 -17 -15 -27 -6 -8 6 -14 17 -14 23 0 6 5 3 11 -7 9 -15 13
-16 27 -5z m4076 -78 c3 -8 2 -12 -4 -9 -6 3 -10 10 -10 16 0 14 7 11 14 -7z
m-990 -15 c-3 -5 -10 -7 -15 -3 -5 3 -7 10 -3 15 3 5 10 7 15 3 5 -3 7 -10 3
-15z m986 -18 c0 -6 -5 -13 -10 -16 -6 -4 -8 -10 -5 -15 3 -5 1 -11 -3 -14 -7
-4 -9 36 -3 52 3 7 21 1 21 -7z m-3900 -36 c0 -12 -19 -12 -23 0 -4 9 -1 12 9
8 7 -3 14 -7 14 -8z m143 -125 c3 -11 1 -18 -4 -14 -5 3 -9 12 -9 20 0 20 7
17 13 -6z m3724 -12 c-3 -8 -6 -5 -6 6 -1 11 2 17 5 13 3 -3 4 -12 1 -19z
m-1067 -2 c0 -2 -7 -7 -16 -10 -8 -3 -12 -2 -9 4 6 10 25 14 25 6z m-2512
-111 c-3 -3 -9 2 -12 12 -6 14 -5 15 5 6 7 -7 10 -15 7 -18z m3537 5 c3 -5 1
-10 -4 -10 -6 0 -11 5 -11 10 0 6 2 10 4 10 3 0 8 -4 11 -10z m-1200 -161 c-4
-5 -12 -9 -18 -8 -9 0 -8 2 1 6 6 2 9 10 6 15 -4 7 -2 8 5 4 6 -4 9 -12 6 -17z
m1189 -4 c-4 -8 -8 -15 -10 -15 -2 0 -4 7 -4 15 0 8 4 15 10 15 5 0 7 -7 4
-15z m0 -33 c3 -5 -1 -9 -9 -9 -8 0 -12 4 -9 9 3 4 7 8 9 8 2 0 6 -4 9 -8z
m-3204 -18 c0 -8 -19 -13 -24 -6 -3 5 1 9 9 9 8 0 15 -2 15 -3z m7517 -40 c-3
-3 -12 -4 -19 -1 -8 3 -5 6 6 6 11 1 17 -2 13 -5z m-9 -80 c-1 -5 -9 -9 -16
-10 -10 -2 -11 1 -1 12 12 14 24 13 17 -2z m-7308 -64 c0 -5 -2 -10 -4 -10 -3
0 -8 5 -11 10 -3 6 -1 10 4 10 6 0 11 -4 11 -10z m7271 -17 c13 -16 12 -17 -3
-4 -10 7 -18 15 -18 17 0 8 8 3 21 -13z m-6807 -343 c-6 -6 -10 -3 -10 10 0
13 4 16 10 10 7 -7 7 -13 0 -20z m986 14 c0 -8 -19 -13 -24 -6 -3 5 1 9 9 9 8
0 15 -2 15 -3z m5845 -15 c-4 -6 -10 -8 -13 -5 -3 3 -12 0 -21 -7 -14 -11 -14
-10 -2 6 14 18 47 24 36 6z m-6792 -12 c7 3 9 2 4 -2 -4 -5 1 -18 10 -29 13
-15 10 -14 -10 3 -15 14 -27 29 -26 35 0 6 3 5 6 -2 2 -6 10 -9 16 -5z m880
-42 c-3 -9 -8 -14 -10 -11 -3 3 -2 9 2 15 9 16 15 13 8 -4z m1482 6 c3 -5 2
-12 -3 -15 -5 -3 -9 1 -9 9 0 17 3 19 12 6z m-2194 -108 c13 -16 12 -17 -3 -4
-17 13 -22 21 -14 21 2 0 10 -8 17 -17z m2150 -20 c13 -16 12 -17 -3 -4 -17
13 -22 21 -14 21 2 0 10 -8 17 -17z m-2061 3 c0 -2 -8 -10 -17 -17 -16 -13
-17 -12 -4 4 13 16 21 21 21 13z m2070 -102 c0 -8 -19 -13 -24 -6 -3 5 1 9 9
9 8 0 15 -2 15 -3z m-1595 -24 c-3 -5 -12 -10 -18 -10 -7 0 -6 4 3 10 19 12
23 12 15 0z m1536 -103 c-10 -9 -11 -8 -5 6 3 10 9 15 12 12 3 -3 0 -11 -7
-18z m4499 -13 c0 -8 -19 -13 -24 -6 -3 5 1 9 9 9 8 0 15 -2 15 -3z m-43 -59
c0 -8 -4 -12 -9 -9 -5 3 -6 10 -3 15 9 13 12 11 12 -6z m-4487 -5 c0 -5 -5
-10 -11 -10 -5 0 -7 5 -4 10 3 6 8 10 11 10 2 0 4 -4 4 -10z m-15 -100 c3 -5
1 -10 -4 -10 -6 0 -11 5 -11 10 0 6 2 10 4 10 3 0 8 -4 11 -10z m4492 -513 c0
-8 -6 -14 -14 -14 -9 0 -10 4 -2 14 6 7 12 13 14 13 1 0 2 -6 2 -13z m-26
-234 c13 -16 12 -17 -3 -4 -10 7 -18 15 -18 17 0 8 8 3 21 -13z m-4331 -187
c0 -3 -4 -8 -10 -11 -5 -3 -10 -1 -10 4 0 6 5 11 10 11 6 0 10 -2 10 -4z m230
-120 c0 -3 -4 -8 -10 -11 -5 -3 -10 -1 -10 4 0 6 5 11 10 11 6 0 10 -2 10 -4z
m220 -76 c-8 -5 -19 -10 -25 -10 -5 0 -3 5 5 10 8 5 20 10 25 10 6 0 3 -5 -5
-10z m3845 -59 c3 -5 0 -13 -6 -17 -7 -4 -9 -3 -5 4 3 5 0 13 -6 15 -9 4 -10
6 -1 6 6 1 14 -3 18 -8z m-3665 -11 c0 -5 -2 -10 -4 -10 -3 0 -8 5 -11 10 -3
6 -1 10 4 10 6 0 11 -4 11 -10z m42 -28 c-3 -9 -1 -13 5 -9 5 3 10 0 10 -8 0
-17 -14 -10 -26 14 -7 13 -6 18 4 18 7 0 11 -7 7 -15z m3602 -58 c3 -8 2 -12
-4 -9 -6 3 -10 10 -10 16 0 14 7 11 14 -7z m-3347 -67 c1 -11 1 -18 0 -16 -2
2 -8 11 -15 20 -9 12 -9 16 1 16 7 0 14 -9 14 -20z m76 -22 c-3 -9 -8 -14 -10
-11 -3 3 -2 9 2 15 9 16 15 13 8 -4z m44 -30 c0 -8 -4 -12 -9 -9 -5 3 -6 10
-3 15 9 13 12 11 12 -6z m38 5 c-3 -5 -12 -10 -18 -10 -7 0 -6 4 3 10 19 12
23 12 15 0z m45 -40 c0 -5 -5 -10 -11 -10 -5 0 -7 5 -4 10 3 6 8 10 11 10 2 0
4 -4 4 -10z m565 -220 c-3 -5 -12 -10 -18 -10 -7 0 -6 4 3 10 19 12 23 12 15
0z m91 -39 c0 -16 -3 -17 -14 -9 -12 10 -7 19 13 28 1 0 1 -9 1 -19z m101 -27
c-3 -3 -12 -4 -19 -1 -8 3 -5 6 6 6 11 1 17 -2 13 -5z m200 -79 c0 -8 -4 -12
-9 -9 -4 3 -8 9 -8 15 0 5 4 9 8 9 5 0 9 -7 9 -15z m483 -156 c0 -5 -4 -9 -10
-9 -5 0 -10 5 -10 11 0 5 -5 7 -12 3 -7 -4 -8 -3 -4 4 7 12 36 5 36 -9z m1635
3 c-3 -3 -11 0 -18 7 -9 10 -8 11 6 5 10 -3 15 -9 12 -12z m-1514 -35 c-10 -9
-11 -8 -5 6 3 10 9 15 12 12 3 -3 0 -11 -7 -18z m180 -54 c13 -15 12 -15 -8
-4 -24 12 -29 21 -14 21 5 0 15 -7 22 -17z m154 -43 c3 -5 1 -10 -4 -10 -6 0
-11 5 -11 10 0 6 2 10 4 10 3 0 8 -4 11 -10z m1166 -95 c5 4 6 -1 3 -9 -9 -23
-20 -19 -21 7 0 12 1 16 4 9 3 -6 9 -10 14 -7z m-320 -62 c13 -16 12 -17 -3
-4 -17 13 -22 21 -14 21 2 0 10 -8 17 -17z m180 -30 c13 -16 12 -17 -3 -4 -10
7 -18 15 -18 17 0 8 8 3 21 -13z"/>
<path d="M9153 13955 c0 -8 4 -12 9 -9 5 3 6 10 3 15 -9 13 -12 11 -12 -6z"/>
<path d="M8986 13945 c-9 -26 -7 -32 5 -12 6 10 9 21 6 23 -2 3 -7 -2 -11 -11z"/>
<path d="M10495 13780 c3 -5 8 -10 11 -10 2 0 4 5 4 10 0 6 -5 10 -11 10 -5 0
-7 -4 -4 -10z"/>
<path d="M10550 13716 c4 -4 16 -4 26 2 16 9 14 10 -8 9 -15 -1 -23 -6 -18
-11z"/>
<path d="M7655 13570 c-4 -6 -11 -7 -17 -4 -7 4 -8 2 -4 -5 6 -9 11 -9 22 0
14 11 18 19 10 19 -3 0 -8 -5 -11 -10z"/>
<path d="M7349 13413 c-13 -16 -12 -17 4 -4 16 13 21 21 13 21 -2 0 -10 -8
-17 -17z"/>
<path d="M11430 13279 c0 -5 5 -7 10 -4 6 3 10 8 10 11 0 2 -4 4 -10 4 -5 0
-10 -5 -10 -11z"/>
<path d="M11840 12956 c0 -2 7 -9 15 -16 9 -7 15 -8 15 -2 0 5 -7 12 -15 16
-8 3 -15 4 -15 2z"/>
<path d="M6551 12724 c0 -11 3 -14 6 -6 3 7 2 16 -1 19 -3 4 -6 -2 -5 -13z"/>
<path d="M6256 12371 c-4 -5 -2 -12 3 -15 5 -4 12 -2 15 3 4 5 2 12 -3 15 -5
4 -12 2 -15 -3z"/>
<path d="M12428 12273 c7 -3 16 -2 19 1 4 3 -2 6 -13 5 -11 0 -14 -3 -6 -6z"/>
<path d="M12456 12103 c-6 -14 -5 -15 5 -6 7 7 10 15 7 18 -3 3 -9 -2 -12 -12z"/>
<path d="M5690 11070 c0 -5 5 -10 11 -10 5 0 7 5 4 10 -3 6 -8 10 -11 10 -2 0
-4 -4 -4 -10z"/>
<path d="M5675 10931 c-3 -5 -2 -12 3 -15 5 -3 9 1 9 9 0 17 -3 19 -12 6z"/>
<path d="M5619 10013 c-8 -9 -9 -14 -2 -10 6 4 13 1 16 -5 3 -7 4 -3 4 10 -1
26 -1 26 -18 5z"/>
<path d="M5630 9949 c0 -5 5 -7 10 -4 6 3 10 8 10 11 0 2 -4 4 -10 4 -5 0 -10
-5 -10 -11z"/>
<path d="M12990 9651 c0 -6 4 -13 10 -16 6 -3 7 1 4 9 -7 18 -14 21 -14 7z"/>
<path d="M5780 9129 c0 -5 5 -7 10 -4 6 3 10 8 10 11 0 2 -4 4 -10 4 -5 0 -10
-5 -10 -11z"/>
<path d="M12752 8960 c-9 -15 -9 -21 1 -26 6 -4 9 -4 5 1 -4 4 -3 14 4 22 6 7
9 15 7 18 -3 2 -10 -4 -17 -15z"/>
<path d="M5391 8814 c0 -11 3 -14 6 -6 3 7 2 16 -1 19 -3 4 -6 -2 -5 -13z"/>
<path d="M5215 8719 c-4 -6 -5 -12 -2 -15 2 -3 7 2 10 11 7 17 1 20 -8 4z"/>
<path d="M4383 8061 c0 -11 5 -18 9 -15 4 3 5 11 1 19 -7 21 -12 19 -10 -4z"/>
<path d="M12175 7960 c-3 -5 -1 -10 4 -10 6 0 11 5 11 10 0 6 -2 10 -4 10 -3
0 -8 -4 -11 -10z"/>
<path d="M11565 7421 c-3 -5 -1 -12 5 -16 5 -3 10 1 10 9 0 18 -6 21 -15 7z"/>
<path d="M3530 7369 c-13 -7 -13 -9 0 -9 12 -1 11 -4 -4 -15 -11 -8 -17 -17
-14 -20 2 -3 15 6 27 19 23 24 17 42 -9 25z"/>
<path d="M11075 7090 c-3 -5 -1 -10 4 -10 6 0 11 5 11 10 0 6 -2 10 -4 10 -3
0 -8 -4 -11 -10z"/>
<path d="M10869 6323 c-13 -16 -12 -17 4 -4 9 7 17 15 17 17 0 8 -8 3 -21 -13z"/>
<path d="M10860 6291 c0 -6 4 -13 10 -16 6 -3 7 1 4 9 -7 18 -14 21 -14 7z"/>
<path d="M6840 6170 c-6 -11 -8 -20 -6 -20 3 0 10 9 16 20 6 11 8 20 6 20 -3
0 -10 -9 -16 -20z"/>
<path d="M6780 6095 c-7 -8 -9 -15 -6 -15 4 0 14 7 22 15 9 8 11 15 6 15 -5 0
-15 -7 -22 -15z"/>
<path d="M6710 5951 c0 -6 4 -13 10 -16 6 -3 7 1 4 9 -7 18 -14 21 -14 7z"/>
<path d="M7016 5952 c-3 -4 4 -9 15 -9 23 -2 25 3 4 10 -8 4 -16 3 -19 -1z"/>
<path d="M6686 5932 c-3 -5 1 -9 9 -9 8 0 12 4 9 9 -3 4 -7 8 -9 8 -2 0 -6 -4
-9 -8z"/>
<path d="M10828 5813 c7 -3 16 -2 19 1 4 3 -2 6 -13 5 -11 0 -14 -3 -6 -6z"/>
<path d="M10827 5666 c-4 -10 -3 -15 3 -11 6 3 10 1 10 -6 0 -7 3 -10 6 -6 3
3 2 13 -4 22 -8 16 -9 16 -15 1z"/>
<path d="M6420 5506 c0 -2 8 -10 18 -17 15 -13 16 -12 3 4 -13 16 -21 21 -21
13z"/>
<path d="M10788 4973 c7 -3 16 -2 19 1 4 3 -2 6 -13 5 -11 0 -14 -3 -6 -6z"/>
<path d="M1642 4656 c7 -8 15 -12 17 -11 5 6 -10 25 -20 25 -5 0 -4 -6 3 -14z"/>
<path d="M5886 4622 c-3 -5 1 -9 9 -9 8 0 12 4 9 9 -3 4 -7 8 -9 8 -2 0 -6 -4
-9 -8z"/>
<path d="M5826 4521 c-3 -5 2 -15 12 -22 15 -12 16 -12 5 2 -7 9 -10 19 -6 22
3 4 4 7 0 7 -3 0 -8 -4 -11 -9z"/>
<path d="M10755 4390 c3 -5 8 -10 11 -10 2 0 4 5 4 10 0 6 -5 10 -11 10 -5 0
-7 -4 -4 -10z"/>
<path d="M2190 4169 c0 -5 5 -7 10 -4 6 3 10 8 10 11 0 2 -4 4 -10 4 -5 0 -10
-5 -10 -11z"/>
<path d="M2246 4133 c-6 -14 -5 -15 5 -6 7 7 10 15 7 18 -3 3 -9 -2 -12 -12z"/>
<path d="M10737 3925 c-4 -8 -3 -16 1 -19 4 -3 9 4 9 15 2 23 -3 25 -10 4z"/>
<path d="M6396 3857 c3 -10 9 -15 12 -12 3 3 0 11 -7 18 -10 9 -11 8 -5 -6z"/>
<path d="M6425 3861 c-3 -5 -2 -12 3 -15 5 -3 9 1 9 9 0 17 -3 19 -12 6z"/>
<path d="M2738 3727 c8 -9 22 -19 33 -22 11 -4 16 -11 13 -17 -4 -6 -2 -8 4
-4 6 3 15 -2 21 -11 6 -10 11 -13 11 -7 0 12 -21 32 -65 59 -24 15 -27 15 -17
2z"/>
<path d="M5260 3576 c0 -2 7 -7 16 -10 8 -3 12 -2 9 4 -6 10 -25 14 -25 6z"/>
<path d="M6333 3480 c1 -21 10 -18 13 5 1 8 -2 15 -6 15 -5 0 -8 -9 -7 -20z"/>
<path d="M3186 3392 c-2 -4 -1 -14 4 -22 7 -11 9 -9 7 8 -1 24 -3 26 -11 14z"/>
<path d="M3285 3290 c3 -5 8 -10 11 -10 2 0 4 5 4 10 0 6 -5 10 -11 10 -5 0
-7 -4 -4 -10z"/>
<path d="M3390 3220 c0 -5 5 -10 11 -10 5 0 7 5 4 10 -3 6 -8 10 -11 10 -2 0
-4 -4 -4 -10z"/>
<path d="M6280 3211 c0 -6 4 -13 10 -16 6 -3 7 1 4 9 -7 18 -14 21 -14 7z"/>
<path d="M10680 3160 c-8 -5 -10 -10 -5 -10 6 0 17 5 25 10 8 5 11 10 5 10 -5
0 -17 -5 -25 -10z"/>
<path d="M4951 3106 c-9 -11 -9 -16 0 -22 7 -4 9 -3 5 4 -3 5 0 12 6 15 7 2
10 7 7 11 -3 4 -12 0 -18 -8z"/>
<path d="M3590 3059 c0 -5 5 -7 10 -4 6 3 10 8 10 11 0 2 -4 4 -10 4 -5 0 -10
-5 -10 -11z"/>
<path d="M10676 3032 c-3 -5 1 -9 9 -9 8 0 12 4 9 9 -3 4 -7 8 -9 8 -2 0 -6
-4 -9 -8z"/>
<path d="M3686 2996 c3 -8 13 -17 22 -21 13 -5 13 -2 -3 15 -21 24 -26 25 -19
6z"/>
<path d="M3770 2935 c0 -8 4 -15 10 -15 5 0 7 7 4 15 -4 8 -8 15 -10 15 -2 0
-4 -7 -4 -15z"/>
<path d="M10670 2800 c-9 -6 -10 -10 -3 -10 6 0 15 5 18 10 8 12 4 12 -15 0z"/>
<path d="M6136 2584 c-5 -14 -4 -15 9 -4 17 14 19 20 6 20 -5 0 -12 -7 -15
-16z"/>
<path d="M4600 2550 c-9 -6 -10 -10 -3 -10 6 0 15 5 18 10 8 12 4 12 -15 0z"/>
<path d="M6019 2183 c8 -16 8 -22 -1 -25 -8 -3 -6 -7 4 -11 13 -4 16 -1 13 15
-3 12 -10 26 -16 32 -9 8 -9 6 0 -11z"/>
<path d="M10635 2149 c-4 -6 -5 -12 -2 -15 2 -3 7 2 10 11 7 17 1 20 -8 4z"/>
<path d="M5973 1945 c4 -5 0 -16 -8 -25 -14 -16 -14 -18 0 -24 10 -3 14 -2 10
5 -4 5 -2 16 5 24 8 10 8 15 -2 21 -7 4 -10 3 -5 -1z"/>
<path d="M10590 1756 c0 -2 7 -7 16 -10 8 -3 12 -2 9 4 -6 10 -25 14 -25 6z"/>
<path d="M6020 1476 c0 -2 9 -6 20 -9 11 -3 18 -1 14 4 -5 9 -34 13 -34 5z"/>
<path d="M6166 1393 c-4 -10 -4 -14 0 -10 4 4 14 1 23 -6 14 -10 14 -10 4 4
-7 9 -10 19 -6 22 3 4 2 7 -4 7 -6 0 -14 -8 -17 -17z"/>
<path d="M6346 1297 c3 -10 9 -15 12 -12 3 3 0 11 -7 18 -10 9 -11 8 -5 -6z"/>
<path d="M10544 1250 c2 -16 20 -14 24 2 3 10 2 10 -6 -1 -7 -9 -11 -10 -15
-2 -4 7 -5 8 -3 1z"/>
<path d="M6600 1180 c-9 -6 -10 -10 -3 -10 6 0 15 5 18 10 8 12 4 12 -15 0z"/>
<path d="M10535 1170 c-3 -5 -1 -10 4 -10 6 0 11 5 11 10 0 6 -2 10 -4 10 -3
0 -8 -4 -11 -10z"/>
<path d="M10500 956 c0 -2 7 -6 15 -10 8 -3 15 -1 15 4 0 6 -7 10 -15 10 -8 0
-15 -2 -15 -4z"/>
<path d="M7216 888 c3 -5 10 -6 15 -3 13 9 11 12 -6 12 -8 0 -12 -4 -9 -9z"/>
<path d="M7696 722 c-3 -5 1 -9 9 -9 8 0 12 4 9 9 -3 4 -7 8 -9 8 -2 0 -6 -4
-9 -8z"/>
<path d="M7961 614 c0 -11 3 -14 6 -6 3 7 2 16 -1 19 -3 4 -6 -2 -5 -13z"/>
<path d="M9180 230 c0 -5 5 -10 11 -10 5 0 7 5 4 10 -3 6 -8 10 -11 10 -2 0
-4 -4 -4 -10z"/>
<path d="M9756 83 c-6 -14 -5 -15 5 -6 7 7 10 15 7 18 -3 3 -9 -2 -12 -12z"/>
<path d="M10035 50 c3 -5 8 -10 11 -10 2 0 4 5 4 10 0 6 -5 10 -11 10 -5 0 -7
-4 -4 -10z"/>
</g>
</svg>
